<svg width="17" height="21" viewBox="0 0 17 21" fill="none" xmlns="http://www.w3.org/2000/svg">
<g clip-path="url(#clip0_825_863)">
<path d="M16.4591 7.1589C16.338 7.2534 14.1994 8.4651 14.1994 11.1594C14.1994 14.2758 16.9206 15.3783 17.0021 15.4056C16.9896 15.4728 16.5698 16.9155 15.5673 18.3855C14.6735 19.6791 13.7399 20.9706 12.3198 20.9706C10.8996 20.9706 10.5342 20.1411 8.89472 20.1411C7.29705 20.1411 6.72899 20.9979 5.42998 20.9979C4.13096 20.9979 3.22457 19.8009 2.18243 18.3309C0.975307 16.6047 0 13.923 0 11.3778C0 7.2954 2.6398 5.1303 5.23784 5.1303C6.6183 5.1303 7.76904 6.0417 8.63575 6.0417C9.46069 6.0417 10.7472 5.0757 12.3177 5.0757C12.9129 5.0757 15.0515 5.1303 16.4591 7.1589ZM11.5721 3.3474C12.2216 2.5725 12.6811 1.4973 12.6811 0.4221C12.6811 0.273 12.6685 0.1218 12.6414 0C11.5846 0.0399 10.3274 0.7077 9.56929 1.5918C8.97408 2.2722 8.41855 3.3474 8.41855 4.4373C8.41855 4.6011 8.4457 4.7649 8.45823 4.8174C8.52506 4.83 8.63366 4.8447 8.74226 4.8447C9.69042 4.8447 10.8829 4.2063 11.5721 3.3474Z" fill="black"/>
</g>
<defs>
<clipPath id="clip0_825_863">
<rect width="17" height="21" fill="white"/>
</clipPath>
</defs>
</svg>
