<?xml version="1.0" encoding="UTF-8"?>
<!DOCTYPE svg PUBLIC "-//W3C//DTD SVG 1.1//EN" "http://www.w3.org/Graphics/SVG/1.1/DTD/svg11.dtd">
<!-- Creator: CorelDRAW 2020 (64-Bit) -->
<svg xmlns="http://www.w3.org/2000/svg" xml:space="preserve" width="370mm" height="597mm" version="1.1" style="shape-rendering:geometricPrecision; text-rendering:geometricPrecision; image-rendering:optimizeQuality; fill-rule:evenodd; clip-rule:evenodd"
viewBox="0 0 21000 29700"
 xmlns:xlink="http://www.w3.org/1999/xlink"
 xmlns:xodm="http://www.corel.com/coreldraw/odm/2003">
 <defs>
  <style type="text/css">
   <![CDATA[
    .str4 {stroke:#0795D2;stroke-width:46.38;stroke-miterlimit:22.9256}
    .str0 {stroke:#F39641;stroke-width:579.51;stroke-miterlimit:22.9256}
    .str1 {stroke:#7690C9;stroke-width:1.1;stroke-miterlimit:22.9256}
    .str2 {stroke:#7690C9;stroke-width:1.1;stroke-miterlimit:22.9256}
    .str3 {stroke:#7690C9;stroke-width:1.1;stroke-miterlimit:22.9256}
    .str5 {stroke:#7690C9;stroke-width:1.1;stroke-miterlimit:22.9256}
    .str8 {stroke:#FEFEFE;stroke-width:76.17;stroke-miterlimit:10}
    .str7 {stroke:#FEFEFE;stroke-width:76.17;stroke-miterlimit:10}
    .str6 {stroke:#E9751D;stroke-width:86.93;stroke-miterlimit:10}
    .fil0 {fill:none}
    .fil6 {fill:none;fill-rule:nonzero}
    .fil5 {fill:#FEFEFE}
    .fil1 {fill:#E9751D}
    .fil8 {fill:#69B653}
    .fil9 {fill:#0795D2}
    .fil3 {fill:#FEFEFE;fill-rule:nonzero}
    .fil4 {fill:#E9751D;fill-rule:nonzero}
    .fil7 {fill:#69B653;fill-rule:nonzero}
    .fil2 {fill:#0795D2;fill-rule:nonzero}
   ]]>
  </style>
 </defs>
 <g id="Layer_x0020_1">
  <metadata id="CorelCorpID_0Corel-Layer"/>
  <g id="_2207700072896">
   <g>
    <path class="fil0 str0" d="M10209.65 8868.72c3055.11,0 5531.77,2476.65 5531.77,5531.76 0,866.1 -199.22,1685.61 -554.05,2415.49l879.38 2461.21 -1454.43 4.18 -197.58 -606.4 -315.23 0.91 -186.08 607.49 -1108.6 3.19c-773.95,411.97 -1657.22,645.7 -2595.18,645.7 -926.63,0 -1799.84,-228.17 -2567.08,-630.88l-614.16 1.76 -0.61 -268.97c-267.43,232.58 -593.91,320.91 -929.49,321.87 -324.91,0.94 -633.53,-94.45 -907.39,-290.54l-300.82 -215.4 472.91 -1296.13c-3.22,-3.25 -6.41,-6.5 -9.56,-9.77 -116.56,-120.82 -206.76,-265.34 -268.61,-429.19 -62.89,-166.63 -92.09,-343.86 -92.5,-524.45 -0.22,-95.65 8.26,-188.37 25.2,-277.54 -219.65,-595.99 -339.66,-1240.25 -339.66,-1912.53 0,-3055.11 2476.66,-5531.76 5531.77,-5531.76z"/>
    <path id="1" class="fil1" d="M10209.65 8868.72c3055.11,0 5531.77,2476.65 5531.77,5531.76 0,866.1 -199.22,1685.61 -554.05,2415.49l879.38 2461.21 -1454.43 4.18 -197.58 -606.4 -315.23 0.91 -186.08 607.49 -1108.6 3.19c-773.95,411.97 -1657.22,645.7 -2595.18,645.7 -926.63,0 -1799.84,-228.17 -2567.08,-630.88l-614.16 1.76 -0.61 -268.97c-267.43,232.58 -593.91,320.91 -929.49,321.87 -324.91,0.94 -633.53,-94.45 -907.39,-290.54l-300.82 -215.4 472.91 -1296.13c-3.22,-3.25 -6.41,-6.5 -9.56,-9.77 -116.56,-120.82 -206.76,-265.34 -268.61,-429.19 -62.89,-166.63 -92.09,-343.86 -92.5,-524.45 -0.22,-95.65 8.26,-188.37 25.2,-277.54 -219.65,-595.99 -339.66,-1240.25 -339.66,-1912.53 0,-3055.11 2476.66,-5531.76 5531.77,-5531.76z"/>
   </g>
   <path class="fil2 str1" d="M13804.06 12731.89c-310.72,20.18 -579.8,-215.73 -600.09,-525.84 -20.41,-310.39 215.59,-579.57 526.18,-599.86 310.15,-20.51 579.2,215.59 599.52,525.94 20.41,310.49 -215.73,579.34 -525.61,599.76z"/>
   <path class="fil2 str2" d="M14259.33 12122.38c19.12,291.37 -201.06,543.2 -492.99,562.32 -291.26,19.01 -543.33,-201.86 -562.44,-493.23 -19.12,-291.36 201.75,-543.09 493.35,-562.31 291.93,-19.12 542.96,201.72 562.08,493.22z"/>
   <path class="fil3" d="M10846.56 11184.47c4.87,-17.21 8.58,-34.61 11.2,-52.17 -0.07,-0.26 -0.15,-0.52 -0.23,-0.77l0.32 0.09c31.9,-216.23 -97.83,-456.69 -170.39,-650.85 -78.83,-210.9 -37.77,-739.8 399.26,-818.6 437.53,-79.2 908.71,55.46 955.02,-150.85 84.49,159.67 118.28,277.32 60.36,433.59 -45.71,123.34 51.67,245.99 57.43,350.65 1.99,36.15 -19.26,105.46 -17.24,130.88 0.39,4.95 53.35,184.91 56.91,206.5 30.6,185.26 -23.96,733.22 -98.67,773.76 -110.39,42.36 -332.76,-13.5 -361.99,18.78 18.42,-20.78 113.32,-5.88 208.81,-2.95 -3.29,-0.1 -233.91,-28.5 -396.7,-138.16 -182.64,-123.42 -233.54,-304.63 -233.54,-304.63 0,0 83.85,319.58 417.28,444.21 -0.58,3.6 0.17,5.78 4.15,1.53 -25.26,27.57 -4.52,106.44 -70.87,208 163.31,86.05 339.71,104.03 462.05,219.75 179.5,67.47 329.35,197.43 363.75,433.08 0,0 560.68,443.15 331.23,851.59 0,0 134.79,-146.4 337.95,-258.32 203.15,-111.19 358.09,-417.91 358.09,-417.91l156.75 95.26c79.62,-125.08 167.21,-250.96 228.21,-305.37 0,0 -8.52,228.33 -43.02,417.92l0.01 0 -0.02 0.08c-16.13,88.64 -37.94,168.81 -67.21,213.17l-109.39 170.72c-97.94,153.05 -210.63,329.66 -297.86,467.88 -450.17,712.3 -404.23,972.18 -917.06,381.95l-24.15 -377.9 -57.21 340.59c-78.52,324.46 -180.92,641.61 -275.03,961.05l-22.46 113.21 8.93 376.2c0,0.36 0.13,0.46 0.13,0.93 3.44,151.63 42.51,331.68 66.7,429.78 34.81,128.94 66.78,252.03 96.25,369.46l0.02 0.07 0 0c66.59,265.29 120.46,501.68 165.77,711.24 -385.4,258.22 -706.45,421.7 -904.49,512.24 -221.84,-344.13 -659.91,-395.3 -937.07,-618.7 -681.7,-374.65 -343.56,-1437.2 -116.09,-2024.17 115.17,-358.92 -262.17,-531.85 -116.1,-582.69 -329.89,-287.84 -307.98,-602.49 -388.83,-887.15 2.38,-1.47 4.86,-3.15 7.47,-5.09 586.26,-435.77 419.45,-808.43 419.45,-808.43 53.13,379.04 -369.07,655.47 -455.05,707.53 -1.69,-6.81 -3.32,-13.51 -4.92,-20.12 -172.17,274.67 -530.23,473.36 -530.23,473.36 0,0 -689.23,343.5 -925.83,208.68 -181.35,-355.54 114.94,-576.28 181.24,-661.33 65.67,-84.33 127.71,-455.82 235.74,-589.18 107.79,-133.83 334.42,-235.51 334.42,-235.51 122.8,-326.69 240.56,-503.57 354.62,-611.33l-8.59 -4.02c76,-71.18 294.19,-273.87 622.13,-288.8 56.44,-2.6 108.84,-4.79 157.59,-7.58 9.08,4.64 17.6,10.15 26.44,14.16 83.89,39.87 169.41,72.02 255.26,99.48 172.89,54.53 347.88,88.91 523.24,111.42 -167.24,-55.82 -330.16,-124.08 -482.18,-207.14 -27.23,-14.9 -52.14,-32.18 -78.16,-48.48 102.26,-25.65 180.56,-72.37 243.26,-163.91 1.1,-2.26 2.15,-4.49 3.14,-6.68z"/>
   <path class="fil4 str3" d="M9234 12268.48c13.26,-6.2 132.53,-244.64 147.58,-278.96 -8.11,144.38 -92.83,483.66 -125.47,555.87 -32.63,72.2 -2.63,-64.17 -22.11,-276.91z"/>
   <path class="fil1" d="M11807.85 13432.76c0,0 23.41,619.81 -114.31,667.32 66,126.9 74.06,249.4 48.44,412.33 -4.6,29.28 -26.21,154.6 -25.3,156.6 4.18,9.12 74.71,-333.63 66.21,-401.98 -10.36,-83.32 -40.02,-147.8 -40.02,-147.8 0,0 196.24,-366.88 64.98,-686.47z"/>
   <path class="fil1" d="M12564.1 12685.84l-27.98 9.81c28.43,920.45 -401.85,412.87 -675.25,175.8 0,0 -19.86,43.6 -22.93,46.79 37.82,121.18 780.79,880.06 726.16,-232.4z"/>
   <path class="fil1" d="M11800.63 12916.61c0,0 -219.55,527.46 -666.09,446.8 -446.53,-80.66 -659.55,-729.66 -659.55,-729.66 4.68,-3.04 13.43,-0.03 14.46,0 140.84,165.56 339.53,527.06 709.21,619.9 205.9,51.7 460.47,-223.24 566.08,-348.29l35.89 11.25z"/>
   <path class="fil1" d="M10480.74 14829.74c-67.46,86.48 471.68,78.07 939.57,387.48 -19.77,-176.01 -890.44,-458.29 -939.57,-387.48z"/>
   <path class="fil1" d="M11610.16 12090.12c0,0 11.39,-15.53 19.67,-3.11 8.28,12.43 23.81,148.04 41.41,208.08 17.59,60.04 64.18,170.81 148.03,190.48 83.85,19.67 206.01,20.7 206.01,20.7 0,0 -162.53,9.32 -194.62,34.17 -32.09,24.84 -50.73,46.58 -39.34,124.22 11.39,77.64 3.11,152.18 -13.46,162.53 -16.56,10.35 6.21,-157.35 -12.42,-208.08 -18.63,-50.72 -96.27,-70.39 -137.68,-61.08 -41.41,9.32 56.93,-19.67 38.3,-134.57 -18.63,-114.91 -78.16,-193.07 -55.9,-333.34z"/>
   <g id="_2207700085088">
    <path class="fil3 str4" d="M13377.48 12731.42c-196.49,12.98 -380.7,-50.32 -523.64,-164.4 -161.68,-128.95 -270.64,-322.97 -285.22,-545.18 -27.36,-418.4 290.54,-781.55 709.11,-808.86 418.57,-27.53 781.55,290.83 809.03,709.4 25.77,394.4 -255.14,739.28 -637.51,800.91 -23.55,3.77 -47.51,6.53 -71.77,8.13z"/>
    <path class="fil2" d="M13894.81 11934.99c20.88,313.31 -216.66,584.16 -529.93,604.57 -313.41,20.75 -584.16,-216.88 -604.67,-530.19 -20.52,-313.31 216.75,-584.13 530.06,-604.67 313.54,-20.52 584.36,217.01 604.54,530.29z"/>
    <path class="fil5" d="M13327.53 11783.8c-104.02,0 -188.34,84.33 -188.34,188.34 0,104.02 84.32,188.34 188.34,188.34 104.02,0 188.34,-84.32 188.34,-188.34 0,-104.01 -84.32,-188.34 -188.34,-188.34z"/>
   </g>
   <path class="fil1 str5" d="M8922.73 12947.1c0,0 -105.73,91.13 -255.85,90.31 -150.12,-0.82 83.99,135.01 255.85,-90.31z"/>
   <path class="fil1" d="M9275.05 15057.61c0,0 -185.65,288.79 -444.97,223.96 -259.32,-64.84 -344.78,-223.96 -344.78,-223.96 0,0 468.55,312.36 789.75,0z"/>
   <path class="fil1" d="M9489.9 13129.29c0,0 -542.15,315.98 -595.19,427.96 2.5,2.86 4.22,5.4 8.27,7.63 16.32,-10.7 423.95,-318.9 719.62,-388.05 85.77,-20.07 91.28,-26.33 90.87,-31.27 -1.1,-13.16 -223.57,-16.27 -223.57,-16.27z"/>
   <path class="fil1" d="M8834.06 13566.97c0,0 -138.13,-271.11 -326.72,-330.05 -188.6,-58.94 40.51,-22.1 40.51,-22.1 0,0 137.77,38.73 213.65,161.55 75.88,122.82 90.98,190.6 90.98,190.6l-18.42 0z"/>
   <g>
    <path class="fil0 str6" d="M6199.38 12513.2c6.34,0.57 12.78,1.34 19.26,2.4l-38.28 -16.79 19.02 14.39z"/>
    <path id="1" class="fil5" d="M6199.38 12513.2c6.34,0.57 12.78,1.34 19.26,2.4l-38.28 -16.79 19.02 14.39z"/>
   </g>
   <g>
    <path class="fil0 str6" d="M6325.58 12574.46c0.46,-4.07 1.22,-7.71 2.25,-10.96l-22.06 -9.67 0.04 0.03c0.69,0.6 1.38,1.2 2.07,1.81l0.78 0.71c0.58,0.52 1.15,1.05 1.72,1.58 0.38,0.35 0.75,0.71 1.12,1.06 0.5,0.48 0.99,0.95 1.48,1.44 0.43,0.41 0.85,0.83 1.27,1.25 0.41,0.42 0.81,0.83 1.22,1.25 0.52,0.53 1.03,1.07 1.54,1.61 0.3,0.32 0.61,0.64 0.91,0.97 0.59,0.64 1.18,1.29 1.77,1.95l0.67 0.75c0.64,0.72 1.28,1.46 1.91,2.2l0.5 0.59c0.69,0.82 1.38,1.65 2.06,2.5l0.32 0.4 0.43 0.53z"/>
    <path id="1" class="fil5" d="M6325.58 12574.46c0.46,-4.07 1.22,-7.71 2.25,-10.96l-22.06 -9.67 0.04 0.03c0.69,0.6 1.38,1.2 2.07,1.81l0.78 0.71c0.58,0.52 1.15,1.05 1.72,1.58 0.38,0.35 0.75,0.71 1.12,1.06 0.5,0.48 0.99,0.95 1.48,1.44 0.43,0.41 0.85,0.83 1.27,1.25 0.41,0.42 0.81,0.83 1.22,1.25 0.52,0.53 1.03,1.07 1.54,1.61 0.3,0.32 0.61,0.64 0.91,0.97 0.59,0.64 1.18,1.29 1.77,1.95l0.67 0.75c0.64,0.72 1.28,1.46 1.91,2.2l0.5 0.59c0.69,0.82 1.38,1.65 2.06,2.5l0.32 0.4 0.43 0.53z"/>
   </g>
   <path class="fil4" d="M6468.88 13180.1c-10.66,-32.22 -18.7,-58.83 -26.18,-83.56 -14.62,-48.36 -27.02,-89.38 -47.72,-136.8 -3.19,-7.32 -4.75,-14.95 -4.82,-22.47 -6.42,-29.3 -14.51,-56.54 -23.63,-80.06 -9.05,-23.29 -18.82,-42.15 -28.59,-54.57 -12.27,-15.57 -19.63,-31.12 -27.24,-47.23 -4.49,-9.49 -9.12,-19.28 -14.34,-26.9 -11.47,-16.74 -28.09,-33.75 -42.62,-48.62 -6.28,-6.42 -12.25,-12.53 -16.62,-17.24 -15.05,-16.22 -26.73,-28.17 -37.31,-37.96 -9.98,-9.23 -20.66,-18.21 -33.77,-28.55l-0.37 -0.21c-3.08,-1.8 -5.83,-3.6 -8.2,-5.39l-34.16 -25.85c-2.25,-1.71 -4.57,-3.71 -6.94,-5.97l-0.35 -0.34c-11.58,-8.74 -18.94,-21.03 -21.71,-34.22l-285.32 -125.16c-29.17,-12.8 -40.5,-39.2 -35.26,-71.43 1.29,-7.96 3.93,-17.37 7.69,-26.85 1.18,-3.62 2.71,-7.09 4.54,-10.36 4.53,-9.4 9.65,-17.75 14.53,-23.96 20.14,-25.64 47.17,-35.19 76.22,-22.45l649.93 285.12 108.72 13.45c7.23,0.88 13.99,3.06 20.07,6.28l45.26 19.19c5.54,2.34 10.53,5.44 14.89,9.12l0.05 -0.06 86 72.66 646.95 283.8c29.12,12.78 40.46,39.1 35.27,71.21 -1.55,9.59 -4.95,21.09 -9.81,32.18 -5.07,11.55 -11.18,21.87 -16.94,29.2 -20.17,25.65 -47.21,35.19 -76.24,22.46l-335.85 -147.34 -12.74 6.01c-4.3,2.02 -8.55,3.63 -12.73,4.84 -4.96,2.92 -10.05,6.11 -15.33,9.68 -4.31,2.91 -8.58,5.97 -12.83,9.22 -14.92,34.6 -26.61,50.48 -48.1,79.69l-0.49 0.66c-1.36,4.87 -0.15,0.74 -0.79,3 -0.45,2.21 -0.84,4.25 -1.15,6.12 -0.62,3.66 -1.05,6.31 -1.3,7.98 -0.32,3.54 0.21,-0.91 -0.1,1.88 -0.2,1.75 -0.31,2.78 -0.35,3.04l-0.11 0.65c-0.58,5.33 -0.94,9.91 -1.1,13.67 -0.21,5.02 -0.23,9.76 -0.07,14.1 0.28,7.2 1.35,15.15 2.36,22.66 1.59,11.85 3.08,22.93 2.85,37.18 -0.07,4.48 -0.28,8.23 -0.62,11.32 -0.39,3.58 -0.94,7.23 -1.64,10.93l-0.17 0.88c-0.7,4.13 -1.32,7.4 -1.87,9.7 -0.79,3.36 -1.92,7.46 -3.42,12.42 -0.84,2.8 -2.34,6.73 -4.4,11.63l0.19 0.08c-1.22,2.93 -2.78,6.35 -4.6,10.18l-0.15 0.3c-9.99,23.23 -23.34,46.79 -35.57,68.37 -3.18,5.6 -6.27,11.05 -9.12,16.2 82.48,70.16 469.4,375.19 691.03,556.48 32.9,26.91 59.02,48.27 102.61,84.07 119.72,-150.27 166.46,-213.58 271.39,-451.62 1.84,-4.16 -0.23,0.73 1.03,-2.22 1.36,-3.17 0.28,-0.49 1.04,-2.32l0.27 -0.66 -0.02 -0.01c-0.09,0.19 -0.12,0.27 -0.02,0l-0.01 -0.01c0.25,-0.57 0.47,-1.15 0.71,-1.73l-0.08 -0.03 0.4 -0.98c0.93,-2.28 -0.12,0.47 0.83,-1.95l0.35 -0.9 -0.01 0c-0.27,0.66 -0.6,1.45 -0.04,-0.01l0.39 -1.02c0.32,-0.84 0.66,-1.66 1.01,-2.48l0.4 -1.09 -0.01 0 2.45 -6.62 0.43 -1.19 -0.01 0 1 -2.83c1.54,-4.36 -1.63,4.56 0.78,-2.43l0.34 -0.96 -0.01 -0.01c2.72,-7.92 1.37,-3.88 0.55,-1.4l0.11 -0.29 0.99 -2.93c-0.27,0.83 -0.29,0.9 0.25,-0.74l0.18 -0.51 -0.01 0 0.24 -0.74 -0.01 0 -0.24 0.73 -0.06 -0.01 0.46 -1.37 -0.01 0c1.95,-5.9 1.38,-4.1 0.51,-1.42l0.26 -0.69 0.28 -0.87c2.73,-8.3 -1.26,4.18 0.81,-2.22 -0.1,0.23 0.53,-1.83 2.64,-8.56l0.1 -0.32c9.58,-30.55 18.67,-63.36 28.58,-99.14 38.38,-138.57 88.24,-318.58 177.27,-449.05l0.09 -0.14c1.45,-2.12 1.15,-1.66 0.96,-1.35 0.34,-0.47 0.69,-0.93 1.05,-1.39l1.66 -2.37c4.09,-5.86 1.83,-2.76 3.47,-5.05l3.91 -5.47c4.53,-6.2 1.4,-2.06 3.47,-4.84 0.9,-1.21 1.84,-2.38 2.82,-3.5 1.11,-1.52 -0.41,0.43 1.24,-1.73 1.99,-2.59 -0.57,0.82 3.69,-4.63l0.67 -0.85 -0.11 -0.09c1.38,-1.75 -0.29,0.42 3.67,-4.5 1.33,-1.65 -0.02,0.08 3.71,-4.45l0.78 -0.95 -0.11 -0.09c0.83,-1.01 0.34,-0.37 3.69,-4.32 0.69,-0.82 0.64,-0.72 3.72,-4.27l0.93 -1.07 -0.12 -0.1c5.11,-5.86 -1.28,1.55 0.73,-0.59l0.81 -0.89 2.38 -2.64c6.77,-7.59 -0.72,0.54 3.49,-4.07 0.4,-0.44 0.8,-0.87 1.21,-1.29l-0.01 -0.01c0.38,-0.4 1.64,-1.74 3.7,-3.94l0.1 -0.1c18.55,-28.41 42.97,-53.69 82.21,-74.42 36.82,-19.46 86.45,-34.12 157.3,-42.36 136.08,-15.82 268.18,-38.51 291.26,-42.53 11.85,-4.03 65.14,-25.64 67.78,-89.65 1.04,-25.24 2.08,-47.05 3.07,-65.74 -27.86,7.55 -57.84,11.46 -83.64,5.31 -40.03,-9.53 -96.24,-94.47 -147.46,-194.91 -62.5,-122.56 -126.99,-276.27 -135.28,-320.03 -6.24,-32.86 -7.75,-65.23 -6.72,-94.47 1.44,-40.52 7.94,-75.34 13.52,-96.85 5.05,-19.51 11.91,-32.28 17.74,-42.95 -2.92,-24.08 -3.78,-64.61 -3.05,-108.35 -8.79,1.47 -18.05,0.92 -27.12,-1.99 -16.8,-5.39 -29.41,-17.75 -35.7,-32.85l-0.07 0.03c-0.16,-0.4 -57.49,-136.66 -56.16,-249.18 0.64,-54.49 6.22,-129.25 30.13,-198.16 26.58,-76.63 74.73,-145.24 160.63,-175.16 94.1,-32.76 161.09,-36.46 197.53,-34.78 57.53,-45.96 231.73,-170.2 436.33,-172.31 160.61,-1.65 263.85,31.97 316.69,55.87 67.91,-59.67 231.69,-186.88 357.57,-150.26 17.31,5.04 37.41,10.27 58.44,15.76 138.84,36.18 314.49,81.96 377.77,242.61 31.3,79.44 42.09,176.19 38.77,275.34 -3.77,112.86 -25.74,229.45 -56.27,326.35 -55.59,176.45 -345.07,729.29 -345.9,730.89 -14.76,28.25 -49.62,39.2 -77.88,24.45 -9.49,-4.96 -17.03,-12.19 -22.29,-20.67l-0.12 0.07c-0.35,-0.56 -120.26,-191.42 -130.82,-344.77 -53.48,79.25 -125.53,158.64 -222.45,230.67 -3.25,39.13 -8.05,77.72 -12.82,116.16 -12.24,98.48 -24.33,195.87 -7.27,255.04 116.41,35.66 209.64,68.8 209.93,68.91 1.18,0.41 2.33,0.86 3.47,1.35 16.15,5.56 7.25,2.37 35.47,12 246.28,84.03 328.79,112.19 411.35,479.98 4.93,21.96 5.09,22.66 5.2,23.16 14.17,65.5 41.26,190.74 75.06,241.44 27.21,40.81 115.77,254.8 190.25,459.62 57.41,157.88 107.34,312.48 116.08,382.37 7.55,60.45 24.54,133.44 41.02,204.21 24.51,105.27 47.95,205.96 41.49,270.53 -2.49,24.89 -7.46,96.24 -13.91,188.99 -15.03,215.82 -38.19,548.45 -61.75,725.16 -17.8,133.49 -32.12,286.76 -35.77,409.44 -2.83,95.38 -0.15,168.63 11.26,191.44 41.91,83.83 36.77,260.04 36.76,260.55 -0.75,31.88 -27.21,57.12 -59.09,56.37 -8.33,-0.2 -16.2,-2.15 -23.28,-5.5l-0.03 0.06c-0.42,-0.19 -145.42,-69.77 -294.68,-28.42 -30.75,8.5 -62.58,-9.54 -71.08,-40.3 -0.33,-1.21 -0.62,-2.42 -0.87,-3.63l-0.04 0.01c-6.31,-30.26 4.64,-47.67 20.28,-72.55 14.94,-23.76 40.2,-63.93 29.15,-142.59 -20.38,-145.07 -87.47,-1131.05 -87.67,-1133.89 -0.18,-2.8 -0.16,-5.58 0.04,-8.31 0.26,-26.1 1.32,-181.73 -9.01,-259.17 -10.53,-79.02 -232.48,-548.42 -233.12,-549.77l-0.08 -0.18c-9.41,-19.11 -142.36,-289.68 -178.02,-396.06 -6.83,23.9 -14.23,45.12 -22.16,61.2 -8.88,18.03 -30.37,53.4 -58.84,100.24 -100.62,165.6 -294.83,485.2 -286.53,627.75 5.52,94.64 31.58,198.69 69.88,292.04 37.7,91.88 86.54,172.05 138.33,220.67 18.73,17.58 39.95,35.97 62.99,55.94 127.19,110.21 305.69,264.88 377.43,521.24 43.48,155.4 41.75,330.96 -3.9,504.75 -43.8,166.73 -128.15,332.29 -251.87,477.06 -30.42,35.6 -37.06,85.86 -43.16,132 -4.28,32.44 -8.36,63.32 -18.73,92.42 -9.82,27.55 -14.33,149.95 -20.59,319.79 -19.19,520.75 -54.06,1467.22 -364.93,1785.67 -12.29,12.64 -28.95,18.44 -45.27,17.36 -469.28,-13.98 -965.58,0.03 -967.03,0.07 -31.88,0.87 -58.43,-24.26 -59.31,-56.14 -0.03,-1.28 -0.02,-2.55 0.03,-3.81 0.93,-52.75 37.91,-2116.51 87.89,-2364.03 18.08,-89.55 49.97,-198.1 84.35,-302.65 63.31,-192.57 136.03,-375.27 145.36,-397.04 4.17,-9.73 2.89,-66.4 -2.4,-133.36 -4.85,-61.43 -14.02,-127.16 -26.97,-170.49 -36.56,-122.33 -45.08,-241.52 -53.56,-360.06 -3.06,-42.8 -6.12,-85.52 -9.96,-123.31 -9.08,-89.26 -25.58,-212.08 -44.15,-304.4 -11.48,-57.09 -18.91,-97.17 -19.21,-97.37 -26.76,-17.38 -34.36,-53.16 -16.98,-79.91 3.34,-5.14 7.35,-9.57 11.85,-13.25 -3.7,-0.86 -6.66,-1.83 -8.75,-2.91 -20.32,-10.54 -48.87,-27.07 -75.71,-58.98 -26.21,-31.16 -49.18,-75.47 -57.26,-139.81 -7.61,-60.47 -16.86,-182.64 -23.25,-273.75 -37.11,57.23 -83.98,121.13 -136.42,177.48 -44.6,47.94 -93.5,90.8 -144.57,120.6 -10.49,9.89 -21.61,18.83 -32.96,26.38 -14.27,9.5 -29.12,17.05 -43.92,21.94l-0.12 0.03c-0.69,0.23 -0.74,0.24 -0.67,0.22 -1.15,0.35 -2.29,0.68 -3.44,0.97l0.02 0.05 -0.29 0.09c-1.36,0.4 -2.73,0.76 -4.1,1.06l0.02 0.08 -0.14 0.04c-1.94,0.52 -3.89,0.93 -5.83,1.24 -1.86,0.41 -3.19,0.69 -4,0.84l-0.69 0.12 0.01 0.11 -0.21 0.04c-0.98,0.16 -1.95,0.3 -2.92,0.42 -1.42,0.26 1.86,-0.2 -0.7,0.18 -0.92,0.13 -1.83,0.24 -2.75,0.33l-0.16 0.03 0.01 0.04c0.53,-0.04 1.85,-0.2 0,0.03 -2.58,0.33 -0.32,0.02 -0.16,-0.02l0.16 -0.01 -0.01 -0.04 -0.19 0.04c-0.12,0 -0.52,0.04 -1.4,0.14 -0.76,0.08 -1.51,0.15 -2.26,0.2l-0.94 0.07 -0.24 0.03 0 0.04c0.53,-0.01 2.1,-0.12 0,0.05 -0.56,0.04 -1.12,0.07 -1.69,0.1 -0.56,0.04 -1.11,0.07 -1.67,0.09 -1.3,0.06 -2.58,0.08 -3.86,0.06 -0.99,0.02 -1.97,0.02 -2.94,-0.01 -67.47,0.54 -137.16,-24.65 -207.11,-66.62 -66.18,-39.71 -133.05,-94.51 -198.48,-156.16l-0.03 -0.03 -840.6 -1177.33zm84.74 -117.06c7.51,24.85 15.6,51.59 25.27,80.84 6.6,19.94 3.86,11.88 13.66,41.71 52.42,159.57 71.59,217.93 180.88,364.2l0.04 0.06c42.2,56.48 9.22,12.55 -0.14,0.1l-0.01 0.01 15.09 20.15c5.13,6.86 10.35,13.82 15.65,20.87 2.13,2.79 4.23,5.64 6.35,8.45l0.49 0.6c-18.21,-24.24 -36.23,-48.25 9.32,12.2 6.9,9.15 13.81,18.3 20.72,27.44 36.23,47.86 9.7,13.01 -0.13,0.1l-0.02 0.02c6.24,8.23 12.49,16.46 18.74,24.68 0.84,0.96 1.65,1.94 2.43,2.97 10.73,14.1 21.49,28.18 32.28,42.24 1.71,1.93 3.3,4 4.77,6.2l-0.03 0.03 3.62 4.72c1.88,2.07 3.62,4.31 5.22,6.7l-0.03 0.03 3.59 4.66c1.9,2.09 3.66,4.35 5.28,6.77l-0.03 0.02c34.45,44.55 69.25,88.79 102.47,129.77 34.43,42.49 66.91,81.24 95.19,112.92l19.42 21.75 0.11 -0.09c-19.96,-22.4 -33.2,-37.26 0.01,-0.01 67.25,75.41 140.88,157.99 214.3,230.84l4.99 4.93 5.2 5.11 4.98 4.87 5.21 5.06 5 4.81 4.99 4.78 5.23 4.98 5 4.72c60.17,56.68 120.6,106.44 178.57,141.22 52.45,31.47 102.12,50.46 146.34,50.31l1.65 -0.15 0.98 -0.13c0.57,-0.07 0.87,-0.1 0.99,-0.11 0.19,-0.03 0.36,-0.09 0.54,-0.14l0.01 0.05c0.41,-0.13 0.82,-0.26 1.23,-0.4 -0.02,0 0.2,-0.08 0.88,-0.3l0.12 -0.04c5.07,-1.67 10.6,-4.56 16.3,-8.35 6.5,-4.33 12.93,-9.58 19.02,-15.47 4.12,-4.57 9.05,-8.56 14.72,-11.74 42.19,-23.62 84.05,-60.29 122.97,-102.11 51.82,-55.7 97.83,-119.78 132.96,-175.4l0.28 -0.44c1.76,-2.79 0.06,-0.16 5.29,-8.57 3.91,-6.29 4.79,-7.69 5.19,-8.34l0.98 -1.61c0.42,-0.78 0.86,-1.56 1.33,-2.33l1.55 -2.56 0.1 0.06 3.5 -5.84c6.54,-10.95 -5.63,9.38 2.27,-3.98l1.56 -2.64 0.1 0.06 0.71 -1.21c0.43,-0.82 0.87,-1.64 1.34,-2.44l3.18 -5.48c0.44,-0.88 0.91,-1.74 1.4,-2.6l1.28 -2.23 0.1 0.06 1.38 -2.44c0.44,-0.89 0.91,-1.77 1.4,-2.65l2.5 -4.46 0.1 0.06 2.6 -4.67 -0.02 -0.01c-1.88,3.34 -4.2,7.46 -0.06,-0.03l3.32 -6.02c-0.97,1.75 -0.36,0.54 4.09,-7.84 4.52,-8.51 1.58,-2.85 0.08,0.05l0.02 0.01 2.37 -4.51c0.27,-0.51 2.61,-4.79 6.55,-11.99 4.68,-8.54 5.36,-9.88 5.85,-10.8 4.31,-8.48 10.76,-16 19.2,-21.7 26.51,-17.87 62.49,-10.88 80.36,15.62 15.32,22.74 24.18,35.3 25.47,37.12 6.04,8.49 9.87,18.72 10.57,29.89 0.05,0.8 17.48,277.93 30.42,380.87 4.88,38.81 16.99,63.45 30.56,79.59 12.94,15.38 28.89,24.49 40.39,30.45 17.27,8.96 445.6,-21.57 446.83,-21.66l0 0.06c28.93,-2.07 55.43,17.85 60.89,47.03 5.88,31.38 -14.8,61.58 -46.18,67.46 -0.38,0.07 -130.48,24.68 -245.09,54.1 -55.95,14.36 -107.35,28.94 -144.89,39.97 8.09,25.32 15.34,54.73 21.75,86.62 19.49,96.95 36.63,224.03 45.95,315.72 4.61,45.28 7.51,85.84 10.42,126.48 8.02,112.14 16.08,224.92 49.03,335.15 15.47,51.78 26.11,126.29 31.5,194.5 6.56,82.95 4.35,162.01 -6.65,187.68 -9.02,21.04 -79.59,198.48 -141.75,387.53 -33.6,102.23 -64.46,206.76 -81.17,289.53 -43.65,216.16 -78.07,1939.83 -84.55,2284.43 143.74,-3.15 521.73,-9.49 888.79,0.7 264.65,-305.47 297.51,-1196.3 315.74,-1690.97 6.65,-180.61 11.45,-310.77 26.93,-354.2 6.68,-18.74 9.91,-43.19 13.3,-68.87 8.26,-62.54 17.26,-130.65 69.87,-192.21 112,-131.06 188.31,-280.75 227.87,-431.34 40.5,-154.16 42.34,-308.78 4.35,-444.53 -62.28,-222.56 -225.41,-363.93 -341.66,-464.65 -24.7,-21.41 -47.45,-41.12 -66.61,-59.11 -63.8,-59.89 -122.29,-154.55 -165.94,-260.96 -42.95,-104.68 -72.22,-222.07 -78.49,-329.62 -10.35,-177.72 196.24,-517.69 303.28,-693.85 26.24,-43.17 46.04,-75.76 53.87,-91.64 22.61,-45.9 43.54,-171.62 54.84,-239.55 9.61,-57.73 15.92,-95.7 66.05,-95.7 38.63,0 58.44,19.98 58.44,62.61 0,14.95 12.01,56.59 24.1,98.5 12.99,45 26.04,90.26 28.77,120.26 3.61,39.72 165.64,369.08 175.39,388.87 0.32,0.61 0.63,1.23 0.92,1.86 0.66,1.4 230.05,486.38 243.08,584.18 11.27,84.51 10.19,248.12 9.92,275.34 1.69,24.76 67.26,986.55 86.73,1125.13 8.9,63.34 2.14,110.72 -9.66,146.81 68.73,-2.08 131.23,9.54 177.9,22.32 -2.5,-44.55 -8.61,-96.63 -23.14,-125.68 -20.73,-41.46 -26.82,-133.71 -23.47,-246.22 3.77,-127 18.45,-284.58 36.67,-421.21 22.72,-170.41 45.84,-502.46 60.84,-717.92 6.34,-91.07 11.21,-161.13 14.36,-192.61 4.51,-45.08 -16.87,-136.93 -39.22,-232.95 -17.26,-74.13 -35.06,-150.58 -43.29,-216.43 -7.64,-61.13 -54.99,-206.47 -109.74,-357.02 -71.67,-197.1 -154.55,-399.5 -178.02,-434.72 -45.84,-68.76 -76.03,-208.3 -91.82,-281.28 -3.63,-16.79 -2.69,-13.12 -4.74,-22.26 -68.36,-304.53 -135.46,-327.43 -335.74,-395.77 -4.7,-1.6 8.36,2.85 -35.95,-12.46 -1.46,-0.39 -2.91,-0.83 -4.35,-1.34 -0.3,-0.11 -104.85,-37.27 -231.28,-75.22l0.02 -0.06c-14.54,-4.34 -27.37,-14.36 -34.88,-28.92 -44.81,-87.19 -29.02,-214.24 -13.04,-342.9 5.84,-46.98 11.7,-94.19 14.31,-135.4 0.68,-17.4 9.18,-34.29 24.52,-45.08 365.72,-257.28 349.7,-626.52 348.13,-652.27 -1.05,-11.27 1.19,-22.97 7.14,-33.6 24.06,-42.86 54.3,-51.6 89.43,-31.88 56.82,31.9 3.58,406.96 -13.8,529.39 -2.56,18.1 -4.62,19.53 -4.38,24.34 3.32,65.15 34.58,143.3 63.52,202.85 84.11,-164.02 248.95,-491.77 287.94,-615.52 27.87,-88.46 47.9,-194.15 51.29,-295.56 2.83,-84.47 -5.79,-165.45 -31.07,-229.62 -41.69,-105.83 -185.4,-143.28 -298.99,-172.89 -21.31,-5.55 -41.67,-10.86 -61.62,-16.66 -93.32,-27.15 -262.73,137.86 -274.87,149.83 -19.53,20.16 -51.39,23.59 -74.96,6.82 -0.24,-0.17 -81.67,-59.89 -291.37,-57.73 -195.31,2.02 -360.86,142.57 -378.79,158.29 -13.75,13.25 -33.76,19.4 -53.7,14.58 -0.14,-0.03 -48.45,-12.44 -164.25,27.89 -46.11,16.05 -73.4,57.06 -89.55,103.61 -18.82,54.26 -23.26,116.24 -23.79,161.95 -0.23,19.2 1.91,39.71 5.39,60.04 11.36,-12.11 23.54,-21.34 33.63,-26.51 9.98,-5.11 20.3,-8.12 30.15,-8.72 25.72,-1.58 46.14,8.83 58.71,32.61 8.85,16.73 10.13,36.57 0.79,58.61 -2.44,5.75 -5.85,64.31 -8.31,125.65 -2.5,62.11 -4.43,120.69 -3.71,122.35 16.17,36.96 5.95,55.62 -8.14,81.37 -2.8,5.12 -6.15,11.24 -7.78,17.5 -4.06,15.67 -8.8,41.34 -9.89,71.95 -0.76,21.42 0.35,45.11 4.91,69.13 6.65,35.1 66.12,173.59 124.86,288.78 37.76,74.04 69.07,134.25 70.95,134.7 25.39,6.05 83.96,-26.76 91.28,-30.94 10.41,-6.25 22.85,-9.29 35.85,-7.91 31.75,3.37 54.76,31.85 51.39,63.61 -0.02,0.12 -4.61,41.47 -9.21,152.92 -5.97,144.75 -131.76,190.25 -151.31,196.46 -2.71,0.91 -5.53,1.62 -8.43,2.13 -0.43,0.08 -147.11,26.1 -301.62,44.07 -55.46,6.45 -91.88,16.64 -116.55,29.68 -19.93,10.52 -31.93,23.58 -41.09,38.32l-0.05 -0.03c-1.52,2.44 -3.24,4.8 -5.17,7.04l-0.5 0.58c-0.45,0.53 -0.91,1.04 -1.39,1.56l-0.01 -0.02 -0.22 0.24 0.01 0.01 0.11 -0.12 -0.39 0.42 -0.01 -0.01 0.29 -0.29 -0.01 -0.01 -0.28 0.3 -0.01 -0.01 -0.44 0.46 0.36 -0.36 -3.18 3.35 -2.79 3.04 -0.75 0.84c-6.4,7.01 1.56,-1.99 -3.04,3.17l-1.11 1.24 -0.39 0.49c1.34,-1.45 4.18,-4.53 -1.06,1.48l-0.11 -0.1 -0.7 0.82c-0.89,1.02 0.04,-0.02 -2.82,3.36 -1.18,1.39 0.2,-0.19 -2.78,3.41l-0.11 -0.09 -0.56 0.68c-1.55,1.88 0.68,-0.78 -2.8,3.55 -1.81,2.24 0.74,-0.87 -2.77,3.59l-0.11 -0.08 -0.44 0.57c-2.1,2.68 1.35,-1.67 -2.79,3.73l-1.34 1.73c-0.58,0.87 -1.18,1.73 -1.82,2.59 -4.25,5.69 -0.64,0.68 -3.02,3.94l-3 4.11c-3.81,5.34 -1.08,1.37 -3.02,4.14l-1.01 1.46 -0.07 0.12c0.3,-0.4 1.9,-2.61 -1.68,2.62l-0.09 0.14c-78.4,114.89 -125.31,284.27 -161.42,414.65 -10.83,39.07 -20.75,74.89 -29.49,102.76l-0.1 0.31c-4.4,14.03 -1.49,4.67 -0.06,-0.01l-0.07 -0.03 -1.91 6.01 -0.31 1.11 -0.04 -0.01 -0.51 1.59 0.04 0.01 0.35 -1.08 -0.33 1.08 -1.11 3.47 0.03 0c0.42,-1.21 1.17,-3.47 0.02,0.01l-0.46 1.4c-0.17,0.64 -0.37,1.27 -0.56,1.91 0.89,-2.69 1.6,-4.83 -0.03,0.12l-0.01 0 -0.44 1.37 -0.02 -0.01 0.25 -0.74 -0.05 -0.01 -0.24 0.74 -0.15 -0.05 -1.17 3.55 -0.07 0.25 0.07 0.02c1.04,-2.99 2.29,-6.64 0.04,0.01l-0.55 1.61c-0.11,0.4 -0.24,0.81 -0.36,1.21 0.77,-2.21 1.89,-5.43 -0.21,0.67l-0.01 0 -0.32 0.97c-1.74,5.05 0.98,-2.93 -1.23,3.33l-1 2.83 -0.01 0 -0.54 1.57 -0.13 -0.05 -0.83 2.32 -0.11 0.36 -0.26 0.71 0.04 0.02 -0.21 0.67 0.23 -0.66 0.02 0.01c0.84,-2.2 1.82,-4.84 0.04,0.01 -4.29,11.67 -3.23,8.75 -1.58,4.2l-0.11 -0.03 -0.41 1.12c-0.39,1.29 -0.83,2.57 -1.31,3.85l-0.39 1.02c-0.33,0.85 -0.16,0.41 -0.01,-0.01l-0.02 -0.01 -0.73 1.84c-1.65,4.21 -1.06,2.75 -1.28,3.3l-0.4 0.98 -0.08 -0.03 -0.32 0.79c-0.21,0.54 -0.11,0.29 0,0l-0.01 0c-0.34,0.92 -0.71,1.85 -1.1,2.77l-0.02 0.05 -0.05 -0.02c-1.25,3.04 -0.72,1.88 -1.21,3.01 -2.1,4.92 -0.49,1.33 -1.49,3.58 -115.77,262.65 -164.27,323.44 -303.94,498.5l-19.42 24.35 -0.08 -0.06 -0.6 0.74c-20.26,24.63 -56.64,28.18 -81.27,7.92 -35.22,-28.95 -43.5,-35.43 -147.97,-120.89 -216.07,-176.73 -589.9,-482.51 -706.18,-585.82 -1.96,-0.67 -3.91,-1.45 -5.83,-2.35 -14.26,-6.66 -24.51,-18.42 -29.62,-32.08l-0.03 -0.06 0.01 -0.01c-5.21,-13.99 -5.03,-29.99 1.8,-44.59 1.92,-4.09 5.14,-8.98 8.34,-13.84 0.29,-0.44 0.25,-0.21 0.16,0.11l0.14 0.09 0.11 -0.23c5.99,-12.32 13.75,-26 22.02,-40.59 10.43,-18.4 21.82,-38.49 29.56,-56.46 0.61,-1.67 1.3,-3.32 2.08,-4.96 0.88,-1.84 1.67,-3.59 2.35,-5.2l0.13 0.06c0.52,-1.73 1.06,-3.76 1.61,-6.08 0.45,-1.89 0.67,-2.63 0.78,-3.04 0.11,-0.7 0.22,-1.41 0.35,-2.11 0.12,-0.65 0.22,-1.27 0.29,-1.87 0.11,-1.09 0.16,-0.41 0.17,-0.91 0.07,-4.88 -0.91,-12.18 -1.96,-19.98 -1.33,-9.89 -2.73,-20.36 -3.26,-33.98 -0.28,-7.32 -0.25,-14.95 0.07,-22.7 0.36,-8.5 0.94,-16.42 1.74,-23.52l0.07 -0.56c0.08,-0.82 0.18,-1.64 0.3,-2.46 0.01,-0.02 0.01,-0.01 0,0l0.02 0.01c0.04,-0.3 0.05,-0.22 0.03,0l0.07 0.01c0.05,-0.47 0.1,-0.95 0.16,-1.42 0.79,-6.25 1.44,-10.88 1.92,-13.76 0.68,-3.98 1.37,-7.72 2.08,-11.19 0.35,-2.11 0.82,-4.22 1.42,-6.32 2.84,-9.86 0.44,-1.26 1.95,-6.61 1.08,-3.85 1.52,-5.36 1.65,-5.79 1.76,-7.04 4.89,-13.86 9.45,-20.08 2.35,-3.22 4.59,-6.25 6.71,-9.14 17.11,-23.25 26.16,-35.56 36.5,-59.92 0.33,-0.94 0.7,-1.88 1.09,-2.82 0.9,-2.19 -0.46,1.06 1.11,-2.81 1.74,-4.29 2.12,-5.16 1.92,-4.61 3.43,-7.94 8.69,-15.23 15.74,-21.19 11.65,-9.83 22.6,-18.08 33.09,-25.18 9.25,-6.26 18.54,-11.9 27.91,-17.16l-217.71 -95.5c-5.81,-2.26 -11.36,-5.51 -16.4,-9.77l-85.87 -72.54 -33.48 -14.2 -109.31 -13.52 0.01 -0.13c-5.41,-0.67 -10.83,-2.11 -16.09,-4.4l-198.14 -86.92c10.4,10.08 20.46,20.45 31.4,32.24 5.18,5.58 9.87,10.38 14.81,15.43 17.85,18.27 38.28,39.17 55.3,64.01 10.27,14.99 16.93,29.08 23.39,42.75 4.64,9.81 9.12,19.29 13.66,25.05 16.56,21.05 32.04,50.18 45.34,84.45 12.35,31.81 23.04,68.74 31.04,108l-0.05 0.01 0.05 0.21c21.65,51.08 33.95,91.79 48.3,139.26zm-53.67 -101.13c-0.08,0.16 0.02,-0.04 0.06,-0.13l-0.06 0.13zm388.81 -44.81l0.09 -0.27c-0.34,0.88 -0.48,1.24 -0.09,0.27zm-55.16 95.44l0.04 -0.17c-0.1,0.35 -0.15,0.57 -0.04,0.17zm-8.95 44.29l0.02 -0.22 -0.07 -0.01 -0.01 0.22 0.06 0.01zm-0.15 0.36l0.07 -0.59 -0.02 -0.01 -0.07 0.72 0.02 -0.12zm-0.02 116.55c0.1,-0.23 0.02,-0.05 -0.05,0.07l0.02 0.01 0.03 -0.08zm-56.48 107.35c-0.13,0.48 -0.38,1.15 0.14,0.09l-0.14 -0.09zm1288.52 258.61l-0.02 0.08 0.01 0c0.12,-0.31 0.26,-0.66 0.01,-0.08zm-105.33 -47.97c0.39,-0.99 0.21,-0.54 -0.01,0l0.01 0zm108.15 41.18c0.15,-0.39 0.28,-0.76 -0.02,-0.01l0.02 0.01zm-104.44 -50.78l0.1 -0.23 -0.28 0.73 -0.11 0.33 0.01 0 0.46 -1.24 0.07 -0.17 0.46 -1.27 -0.25 0.65 -0.04 -0.02 -0.42 1.22zm0.1 -0.23l0.08 -0.18 0.29 -0.79 -0.01 0 -0.36 0.97zm108.29 40.1l-0.22 0.73 -0.04 -0.02 -0.14 0.37c-0.84,2.39 -0.61,1.82 -0.12,0.57l0.09 -0.25 -0.03 0.1 0.28 -0.75 -0.02 -0.01c1.15,-3.17 1.83,-5.09 0.2,-0.74zm-108.78 -38.74l0.11 -0.3 -0.01 0 -0.1 0.3zm4.74 -13.5l0.18 -0.43 0.68 -2.07 -0.05 -0.01 -0.81 2.51zm109.23 37.39l-0.25 0.94 0.32 -0.92 -0.07 -0.02zm-1.07 3.5c-0.44,1.32 -0.29,0.92 0.03,0.01l-0.03 -0.01zm-107.85 -42.18l0.42 -1.25 -0.01 -0.01 -0.41 1.26zm110.35 34.94l-0.04 -0.01c-1.5,4.58 -0.83,2.6 0.04,0.01zm-109.69 -36.93l-0.01 0 0.2 -0.63 0.02 0 -0.21 0.63zm109.94 36.19l-0.05 -0.01 0.21 -0.63 0.05 0.02 -0.21 0.62zm-107.63 -42.82l0.01 0 0.51 -1.59 -0.02 0 -0.5 1.59zm108.85 38.76c-0.32,1.01 -0.19,0.66 0.03,0l-0.03 0zm-108.84 -38.76l-0.01 0c-0.54,1.73 -0.82,2.61 -0.05,0.21l0.06 -0.21zm0.46 -1.58l0.01 -0.02 -0.01 0.02zm0.18 -0.51l0.21 -0.55 1.62 -5.1 -0.01 0 -1.28 3.94 -0.54 1.71zm109.8 35.79l-0.16 0.51 0.17 -0.51 -0.01 0zm-0.51 1.59l-0.04 -0.01c-1.37,4.35 -0.78,2.54 0.04,0.01zm0.52 -1.59c0.91,-2.81 1.67,-5.16 0.01,0.01l-0.01 -0.01zm-107.98 -41.44l0.1 -0.31 -0.01 0 -0.1 0.31 0.01 0zm0.1 -0.31c0.62,-1.96 0.46,-1.47 -0.01,0l0.01 0zm110.16 34.66l0.1 -0.32 -0.07 -0.02 -0.1 0.31 0.07 0.03zm0.1 -0.32c0.62,-2.06 0.89,-2.98 -0.07,-0.02l0.07 0.02zm234.42 -571.38l-0.09 0.09 0.09 -0.09zm-0.45 0.45c-0.14,0.14 -0.11,0.12 0,0zm0.96 -0.97l-0.11 0.11 0.11 -0.11 0 0zm0 0c0.07,-0.07 0.09,-0.08 0.01,0.01l-0.01 -0.01zm-132.75 1205.11c-1.29,2.43 -2.56,4.85 -3.84,7.28l0.05 0.02c2.03,-3.87 4.04,-7.71 3.79,-7.3zm-103.49 -51.4l-0.02 -0.01 -0.92 1.7 0.03 0.02 0.91 -1.71zm-0.02 -0.01l0.02 0.01c1.52,-2.83 1.13,-2.13 -0.02,-0.01zm99.67 58.69c-1.48,2.84 -1.29,2.53 -0.62,1.28l0.67 -1.26 -0.05 -0.02zm-102.05 -54.19l-0.04 -0.02 -1.49 2.74 0.05 0.03 1.48 -2.75zm-0.1 -0.05c-0.77,1.48 -1.15,2.23 0.02,0.01l-0.02 -0.01zm1.56 -2.75l0.03 0.02 -1.49 2.78 -0.04 -0.02 1.5 -2.78zm-6.72 12.52l0.31 -0.64 -1.61 2.97 -0.97 1.74 0.02 0.01 0.21 -0.38 -0.21 0.38 0.01 0.01 2.24 -4.09zm97.91 61.66c-1.28,2.36 -0.25,0.53 1.14,-1.95l-0.04 -0.02 -1.1 1.97zm1.14 -1.95l1.22 -2.2c1.05,-1.92 1.38,-2.56 -1.26,2.18l0.04 0.02zm-100.35 -57.38l-0.74 1.37c1.85,-3.32 1.61,-2.91 0.74,-1.37zm-0.95 1.75c-1.33,2.45 -2.03,3.75 0.01,0.01l-0.01 -0.01zm-344.09 377.38l-0.01 -0.01 -0.11 0.04 0 0.01 0.12 -0.04zm-0.01 -0.01l0.01 0.01c0.38,-0.12 0.26,-0.08 -0.01,-0.01zm10.05 115.86c-0.01,0 0.01,0.01 0.04,0.01 0.01,-0.01 0.01,-0.01 -0.04,-0.01zm-4.84 0.44c-0.24,0.04 -0.18,0.04 0,0.04l0 -0.04zm-421.21 -227.62c-3.57,-3.4 -7.13,-6.8 -10.68,-10.21 -3.56,-3.44 -7.11,-6.88 -10.66,-10.33 -3.55,-3.47 -7.09,-6.95 -10.63,-10.43l-5.42 -5.37c-78.11,-77.5 -151.91,-160.26 -219.3,-235.84 -43.97,-49.31 -23.66,-26.61 0.08,-0.07l0.05 -0.05 -19.22 -21.53c-30.74,-34.43 -64.29,-74.39 -98.82,-116.98 -34.95,-43.13 -71.18,-89.21 -106.74,-135.23l-2.46 -3.19 -0.03 0.02 -0.23 -0.35 -8.57 -11.13 -0.03 0.03 -0.28 -0.42c-2.08,-2.7 -4.19,-5.4 -6.23,-8.12l-0.04 0.03c-11.62,-15.14 -23.22,-30.31 -34.79,-45.51 -0.83,-1.08 -1.61,-2.19 -2.35,-3.32l-5.2 -6.84c-0.72,-0.89 -1.41,-1.8 -2.07,-2.73l-11.72 -15.42 -0.09 0.06c10.55,13.99 25.41,33.64 -0.04,0.04l-10.62 -14.05c-1.39,-1.64 -2.67,-3.35 -3.85,-5.1l-20.78 -27.58c-1.22,-1.46 -2.35,-2.96 -3.4,-4.5 -12.08,-16.04 -8.47,-11.26 -0.25,-0.37 -0.36,-0.54 -0.71,-1.08 -1.05,-1.63l-27.85 -37.15 -0.08 0.06c11.42,15.34 28.55,38.3 -0.04,0.04 -120.39,-161.12 -141.2,-224.48 -198.12,-397.76 -1.17,-3.55 2.56,7.79 -13.66,-41.26l835.17 1172.19zm-256.61 -272.25c27.75,31.03 60.17,67.3 0.05,-0.05l-0.05 0.05zm86.27 -76.79c75.66,84.73 30.23,33.71 0.11,-0.09l-0.11 0.09zm-385 -293.95c-12.9,-16.97 -7.59,-9.89 -0.09,0.06l0.09 -0.06zm92.1 -69.53c-3.64,-4.77 -4.98,-6.51 -0.02,0.02l0.02 -0.02zm-12.5 -16.54l0.01 -0.01 -0.01 0.01zm-2.48 -3.31l0.11 0.13 -5.82 -7.74 -0.01 0.01 5.72 7.6zm2.49 3.3l0 0.01c3.3,4.39 2.73,3.63 0,-0.01zm-89.43 73.2l-0.27 -0.31c2.62,3.46 3.23,4.25 0.27,0.31zm-5.28 -6.93l-0.45 -0.69 -5.2 -6.92 -0.06 0.04 5.71 7.57zm-19.93 -26.39l14.22 18.82 0.06 -0.04 -9.09 -12.09 -0.04 0.02 -0.64 -0.92 -3.4 -4.52c-0.37,-0.42 -0.74,-0.85 -1.11,-1.27zm99.29 -60.27l7.14 9.49 0.01 -0.01 -7.13 -9.49 -0.02 0.01zm-132.19 16.19l-0.08 0.06 0.08 -0.06zm-2.46 -3.28c-8.88,-11.83 -5.35,-7.05 0.85,1.28 -0.29,-0.43 -0.57,-0.85 -0.85,-1.28zm95.01 -65.79l-0.02 0.01 0.02 -0.01z"/>
   <path class="fil5" d="M6523.88 13161.99c-30.44,-92.06 -42.05,-147.74 -75.93,-225.34 0.25,-0.51 0.51,-1.03 0.78,-1.55 -14.68,-71.96 -38.9,-134.69 -65.29,-168.22 -15.92,-20.21 -22.9,-47.01 -39.31,-70.97 -19.19,-27.99 -46.11,-52.65 -64.68,-72.65 -30.21,-32.56 -50.3,-51.14 -82.33,-76.11 -1.66,-0.72 -3.28,-1.64 -4.79,-2.79l-34.16 -25.85c-1.41,-1.07 -2.64,-2.26 -3.69,-3.53l-3.63 -2.68 0 0 -0.01 -0.01 1.74 -0.06c-2.96,-5.15 -3.1,-11.01 0.12,-15.24 0.14,-0.18 0.29,-0.36 0.44,-0.54 0.12,-0.14 0.25,-0.28 0.38,-0.42l0.02 -0.01 0.01 -0.01 0.01 -0.01 0.01 -0.01 0.01 -0.01 0.01 -0.01c0.07,-0.08 0.15,-0.16 0.22,-0.23 0.11,-0.17 0.24,-0.33 0.37,-0.48 0.71,-0.82 1.64,-1.39 2.7,-1.71 2.28,-1.17 4.95,-1.71 7.75,-1.64l-332.55 -145.89c-3.48,-1.53 -1.48,-13.82 4.44,-27.33l0 0c5.92,-13.49 13.62,-23.3 17.1,-21.77l657.99 288.66 116.73 14.44 49.94 21.17 92.34 78.01 654.87 287.28c3.49,1.53 1.5,13.84 -4.42,27.33l0 0c-5.93,13.51 -13.63,23.31 -17.12,21.78l-359.84 -157.86 -36.52 17.21c-2.91,1.37 -5.88,2.14 -8.73,2.36 -17.84,9.79 -35.85,21.51 -55.14,37.79 -0.92,2.3 -1.81,4.52 -2.7,6.65 -15.05,36.4 -26.19,49.87 -51.09,83.88 -1.4,5.04 -2.72,9.73 -3.99,14.14 -1.6,7.45 -2.88,15.08 -3.84,22.67 -0.11,1.21 -0.21,2.08 -0.28,2.54l-0.14 0.98c-1.5,13.23 -2.03,26.23 -1.58,37.84 0.85,22.17 5.49,38.87 5.21,56.91 -0.06,3.97 -0.54,8.16 -1.36,12.51 -0.78,4.85 -2.08,10.43 -4.1,17.12 -0.96,3.18 -2.94,7.83 -5.65,13.51 -14.73,35.27 -40.42,74.56 -53.88,102.24 -0.45,0.92 -8.12,12.32 -8.53,13.19 2.26,6.05 787.19,646.86 872.2,716.76 151.38,-189.99 197.68,-242.5 315.67,-510.18 0.84,-1.9 1.68,-3.86 2.52,-5.89l0.02 -0.04c0.35,-0.86 0.71,-1.76 1.06,-2.63 0.49,-1.2 0.97,-2.37 1.46,-3.61 0.3,-0.77 0.61,-1.59 0.91,-2.38 0.55,-1.4 1.09,-2.8 1.63,-4.25 0.19,-0.5 0.38,-1.04 0.57,-1.55 0.66,-1.77 1.31,-3.54 1.97,-5.37 0.19,-0.52 0.37,-1.05 0.55,-1.57 0.67,-1.88 1.34,-3.77 2.01,-5.71l0.33 -0.97c0.74,-2.16 1.48,-4.34 2.23,-6.57 0.15,-0.45 0.3,-0.92 0.45,-1.37 0.7,-2.13 1.4,-4.26 2.11,-6.45 0.17,-0.52 0.34,-1.07 0.51,-1.59 0.7,-2.19 1.4,-4.38 2.11,-6.63l0.09 -0.31c42.09,-134.16 91.37,-375.98 198.38,-532.8l0.1 -0.15c2.13,-3.11 4.28,-6.2 6.45,-9.25l0.25 -0.34c2.13,-2.98 4.28,-5.93 6.46,-8.84l0.39 -0.53c2.13,-2.84 4.28,-5.65 6.46,-8.42l0.55 -0.72c2.14,-2.71 4.3,-5.39 6.47,-8.04l0.67 -0.82c2.15,-2.59 4.32,-5.15 6.51,-7.68l0.81 -0.94c2.15,-2.46 4.32,-4.89 6.51,-7.29l0.97 -1.06c2.16,-2.35 4.33,-4.65 6.53,-6.93 0.2,-0.2 0.39,-0.42 0.59,-0.62 28.1,-45.23 73.88,-80.25 200.2,-94.94 152.05,-17.68 298.22,-43.61 298.22,-43.61 0,0 107.26,-29.47 111.98,-143.81 4.71,-114.34 9.43,-156.77 9.43,-156.77 0,0 -84.87,49.5 -134.38,37.72 -49.5,-11.79 -226.31,-400.85 -239.27,-469.21 -12.97,-68.37 -2.36,-134.38 5.89,-166.21 8.25,-31.82 27.11,-42.43 18.86,-61.29 -8.25,-18.86 1.18,-268.5 11.79,-293.5 10.61,-25.01 -29.47,-4.72 -44.79,30.64 -15.33,35.36 -36.54,101.37 -36.54,101.37 0,0 -53.05,-126.12 -51.87,-226.31 1.18,-100.2 20.04,-273.47 152.06,-319.44 132.02,-45.97 196.85,-29.47 196.85,-29.47 0,0 189.77,-172.1 418.44,-174.45 228.68,-2.36 325.34,68.36 325.34,68.36 0,0 202.74,-202.74 332.4,-165.02 129.66,37.72 337.11,68.37 398.41,223.96 61.29,155.59 35.36,391.34 -18.86,563.43 -54.22,172.1 -341.83,721.39 -341.83,721.39 0,0 -115.52,-183.89 -122.59,-322.98 -0.3,-5.83 89.17,-589.51 36.95,-496.49 0,0 33.01,419.63 -372.47,704.88 -9.84,158.97 -58.67,350.36 -7.68,449.58 127.49,38.28 233.99,76.13 233.99,76.13 254.39,87.87 333.4,96.15 413.17,451.45 12.96,57.76 43.61,216.89 88.4,284.08 44.8,67.19 278.19,665.98 297.05,816.86 18.86,150.88 91.94,367.76 82.51,462.06 -9.43,94.3 -42.43,664.8 -75.43,912.34 -33.01,247.53 -54.22,563.43 -18.86,634.15 35.37,70.73 30.65,233.39 30.65,233.39 0,0 -164.55,-78.97 -334.74,-31.82 -5.17,-24.76 70.14,-68.66 50.11,-211.29 -20.04,-142.63 -87.22,-1129.82 -87.22,-1129.82 0,0 2.36,-182.7 -9.43,-271.1 -11.78,-88.41 -238.1,-566.97 -238.1,-566.97 0,0 -176.8,-358.34 -181.52,-410.2 -4.71,-51.87 -53.32,-181.53 -53.32,-223.97 0,-42.43 -29.47,216.89 -69.54,298.22 -40.08,81.33 -363.05,554.43 -351.26,756.74 11.79,202.32 110.8,443.21 226.32,551.65 115.51,108.44 344.19,264.03 424.34,550.47 80.15,286.43 -4.32,648.38 -243.99,928.83 -63.71,74.56 -48.07,174.1 -72.54,242.76 -49.66,139.35 23.95,1678.41 -372.38,2084.4 -471.49,-14.14 -972.46,0 -972.46,0 0,0 37.28,-2109.75 86.78,-2354.93 49.51,-245.17 212.17,-655.37 226.32,-688.38 14.14,-33 3.54,-240.46 -27.11,-343.01 -47.32,-158.35 -45.59,-316.14 -61.48,-472.5 -16.12,-158.45 -55.61,-422.67 -89.4,-444.55 0,0 91.95,-29.08 209.82,-59.33 117.87,-30.26 248.71,-55.01 248.71,-55.01 0,0 -445.56,31.82 -477.38,15.32 -31.83,-16.5 -89,-51.27 -101.96,-154.41 -12.97,-103.14 -30.65,-384.27 -30.65,-384.27 0,0 -10.77,-15.19 -26.31,-38.26 -4.65,8.32 -8.98,16.2 -12.81,23.44l-0.91 1.71c-1.02,1.96 -2.09,3.96 -3.18,5.99l-1.08 2.01c-0.82,1.53 -1.66,3.08 -2.51,4.65l-1 1.84c-1.09,1.99 -2.21,4.01 -3.35,6.07 -0.5,0.89 -1,1.79 -1.51,2.69 -0.7,1.27 -1.41,2.54 -2.14,3.82 -0.61,1.09 -1.22,2.17 -1.85,3.27 -0.83,1.46 -1.68,2.95 -2.53,4.43 -0.95,1.65 -1.9,3.3 -2.87,4.97 -0.64,1.11 -1.29,2.22 -1.94,3.34 -0.78,1.34 -1.57,2.69 -2.37,4.05 -0.52,0.88 -1.04,1.76 -1.57,2.64 -1.65,2.79 -3.33,5.61 -5.04,8.46l-1.06 1.75c-1.02,1.7 -2.07,3.42 -3.12,5.14l-0.96 1.59c-3.52,5.75 -7.17,11.62 -10.93,17.59l-0.28 0.44c-65.67,103.94 -167.77,236.31 -276.54,297.21 -18.56,18.6 -39.91,33.37 -60.22,40.08l-0.12 0.04c-0.84,0.27 -1.67,0.53 -2.51,0.78l-0.28 0.09c-0.84,0.24 -1.67,0.47 -2.5,0.69l-0.14 0.03c-1.78,0.47 -3.54,0.86 -5.3,1.18l-0.22 0.04c-0.75,0.14 -1.51,0.26 -2.26,0.38l-0.61 0.08c-0.62,0.09 -1.24,0.16 -1.85,0.23l-0.74 0.08c-0.59,0.06 -1.18,0.11 -1.77,0.15 -0.24,0.02 -0.48,0.04 -0.72,0.05 -0.74,0.05 -1.47,0.07 -2.21,0.09l-0.19 0.01c-113.02,1.99 -242.01,-88.8 -367.61,-207.14l0 0c-3.49,-3.28 -6.98,-6.59 -10.46,-9.92l0 0c-3.48,-3.33 -6.96,-6.68 -10.44,-10.04l0 0c-3.48,-3.37 -6.95,-6.75 -10.42,-10.15l0 -0.01c-3.47,-3.4 -6.93,-6.82 -10.39,-10.25l-0.01 0c-83.07,-82.43 -163.69,-173.88 -236.12,-255 -59.03,-66.12 -132.04,-157.4 -202.84,-249.04l0 -0.01c-2.95,-3.81 -5.9,-7.63 -8.84,-11.45l0 0c-2.94,-3.82 -5.88,-7.63 -8.8,-11.45l-0.01 0c-2.93,-3.81 -5.85,-7.62 -8.76,-11.43l-0.01 0c-2.91,-3.81 -5.82,-7.61 -8.72,-11.4l0 0c-2.9,-3.8 -5.79,-7.58 -8.68,-11.36l0 0c-2.88,-3.78 -5.75,-7.55 -8.61,-11.31l-0.01 -0.01c-2.86,-3.76 -5.71,-7.51 -8.55,-11.25l0 0c-8.51,-11.21 -16.92,-22.32 -25.19,-33.28l0 0c-5.52,-7.3 -10.96,-14.53 -16.34,-21.68l0 0c-2.69,-3.58 -5.36,-7.13 -8.02,-10.66l0 0c-10.61,-14.13 -20.91,-27.89 -30.84,-41.17l0 0c-123.92,-165.85 -137.41,-223.6 -203.18,-422.49zm-47.61 -533.34c0.5,0.73 1,1.47 1.48,2.21 0.2,0.29 0.39,0.58 0.58,0.87 0.41,0.64 0.81,1.27 1.21,1.91 0.24,0.39 0.49,0.78 0.73,1.17 0.34,0.56 0.68,1.12 1.01,1.69 0.31,0.52 0.61,1.04 0.91,1.56 0.26,0.45 0.52,0.91 0.78,1.36 0.36,0.65 0.72,1.29 1.08,1.95 0.2,0.37 0.39,0.74 0.59,1.11 0.4,0.75 0.79,1.51 1.18,2.27l0.4 0.79c0.44,0.88 0.88,1.77 1.31,2.67l0.26 0.54c0.45,0.97 0.9,1.95 1.34,2.94l0.17 0.38c0.47,1.05 0.92,2.12 1.37,3.19l0.08 0.18c0.46,1.13 0.91,2.26 1.36,3.41l0.03 0.08c0.92,2.38 1.79,4.82 2.62,7.31 5.18,4.71 10.19,9.42 15,14.16l0.01 0.01c0.8,0.79 1.6,1.58 2.39,2.37l0 0.01c45.17,45.19 73.01,93.8 69.7,166.26 26.43,25.96 35,46.65 36.16,76.84 0.62,10.37 0.37,21.71 -0.36,34.46 1.28,-13.58 2.54,-27.06 3.78,-40.28l0.03 -0.28 0.3 -3.24 0.12 -1.27 0.05 -0.49 0.16 -1.75c4.56,-48.54 10.56,-93.88 21.21,-141.77 -3.5,-10.54 -7.92,-43.18 -10.45,-67.72l-0.08 -0.87 -0.01 -0.07 0 -0.04 -0.07 -0.8 -0.01 -0.04 0 -0.03 -0.01 -0.07 0 -0.11 -0.04 -0.51 -0.01 -0.1 -0.01 -0.1 0 0 0 -0.01 -0.04 -0.6 0 -0.1 -0.01 -0.1 0 -0.05 -0.01 -0.05 0 -0.1 -0.03 -0.58 -0.01 -0.1 0 -0.02 0 -0.08 -0.03 -0.57 0 -0.1 0 -0.09 -0.01 -0.1 0 -0.09 0 -0.1 -0.01 -0.28 0 -0.09 0 -0.09 -0.01 -0.17 0 -0.2 -156.21 -68.53 0.02 0.04zm224.47 357.96l12.2 13.95 1.37 -0.51c2.65,-1.53 5.15,-2.94 7.53,-4.25l-0.09 -0.18c29.86,-17.2 32.57,-15.88 65.43,-24.46 2.22,-2.97 4.34,-5.82 6.39,-8.56l0 0 1.22 -1.64 0 0 0.11 -0.14c23.35,-31.27 37.55,-48.42 71.79,-65.77 18.74,-32.92 41.74,-51.33 65.98,-59.33 2.11,-0.69 4.22,-1.31 6.35,-1.85l0 0c1.11,-0.28 2.22,-0.54 3.33,-0.78l-240.15 -105.35c3.22,16.68 2.85,35.6 2.52,53.26 1.44,51.51 5.08,74.78 -1.01,118.6 -1.75,12.61 -1.46,36.09 -4.88,51.58 0,0.05 0.84,15.83 1.91,35.43z"/>
   <g>
    <path class="fil6 str7" d="M6260.63 12110.64l151.04 100.75 -96.02 -127.68c-16.52,11.41 -34.96,20.6 -55.02,26.93zm54.89 -27.14c2.71,-1.8 5.49,-3.57 8.05,-5.54 2.81,0.86 5.64,1.67 8.49,2.42 1.13,-3.95 -0.62,-8.26 -4.4,-10.22 -0.91,-0.48 -67.67,-36.56 -81.65,-124.09 -0.79,-4.81 -5.31,-8.09 -10.08,-7.31 -4.81,0.78 -8.1,5.27 -7.34,10.09 13.59,84.97 71.05,125.05 86.93,134.65zm142.07 -6.05l85.17 119.12 19.01 -188.4c-26.69,31.52 -62.21,56.06 -104.18,69.28zm123.88 -96.35c0.85,-1.37 1.69,-2.75 2.52,-4.15l-0.01 0c-0.82,1.4 -1.66,2.78 -2.51,4.15zm68.88 -8.83c0.15,-0.04 0.3,-0.08 0.44,-0.13 -0.15,0.05 -0.29,0.09 -0.44,0.13zm2.15 -0.61l-43.39 279.18 61.14 227.89 -207.47 55.65 -61.64 -229.78 -244.77 -188.57c-74.26,-15.36 -137.32,-71.05 -158.33,-149.3 -29.64,-110.52 35.94,-224.19 146.47,-253.87 26.84,-7.18 53.81,-8.68 79.77,-5.33 27.9,-29.98 64.12,-52.88 106.58,-64.27 56.26,-15.1 113.21,-7.52 161.28,17.02 -14.35,13.34 -77.27,80.39 -15.94,180.75 2.53,4.13 7.96,5.44 12.09,2.92 0.97,-0.56 1.75,-1.3 2.39,-2.12 2.17,-2.8 2.53,-6.78 0.55,-10 -60.4,-98.84 11.57,-157.74 14.66,-160.22 3.66,-2.95 4.4,-8.22 1.68,-12.02 15.63,-10.61 33.15,-18.96 52.43,-24.16 93,-24.91 188.63,30.26 213.59,123.26 24.75,92.29 -29.38,187.15 -121.09,212.97zm-415.12 144.86c1.23,-0.23 2.45,-0.48 3.67,-0.74 -1.22,0.26 -2.44,0.51 -3.67,0.74zm4.58 -0.93c1.53,-0.33 3.06,-0.68 4.59,-1.05 -1.53,0.37 -3.06,0.72 -4.59,1.05zm4.89 -1.12c1.68,-0.41 3.36,-0.83 5.04,-1.29 -1.68,0.46 -3.36,0.88 -5.04,1.29z"/>
    <path id="1" class="fil7" d="M6260.63 12110.64l151.04 100.75 -96.02 -127.68c-16.52,11.41 -34.96,20.6 -55.02,26.93zm54.89 -27.14c2.71,-1.8 5.49,-3.57 8.05,-5.54 2.81,0.86 5.64,1.67 8.49,2.42 1.13,-3.95 -0.62,-8.26 -4.4,-10.22 -0.91,-0.48 -67.67,-36.56 -81.65,-124.09 -0.79,-4.81 -5.31,-8.09 -10.08,-7.31 -4.81,0.78 -8.1,5.27 -7.34,10.09 13.59,84.97 71.05,125.05 86.93,134.65zm142.07 -6.05l85.17 119.12 19.01 -188.4c-26.69,31.52 -62.21,56.06 -104.18,69.28zm123.88 -96.35c0.85,-1.37 1.69,-2.75 2.52,-4.15l-0.01 0c-0.82,1.4 -1.66,2.78 -2.51,4.15zm68.88 -8.83c0.15,-0.04 0.3,-0.08 0.44,-0.13 -0.15,0.05 -0.29,0.09 -0.44,0.13zm2.15 -0.61l-43.39 279.18 61.14 227.89 -207.47 55.65 -61.64 -229.78 -244.77 -188.57c-74.26,-15.36 -137.32,-71.05 -158.33,-149.3 -29.64,-110.52 35.94,-224.19 146.47,-253.87 26.84,-7.18 53.81,-8.68 79.77,-5.33 27.9,-29.98 64.12,-52.88 106.58,-64.27 56.26,-15.1 113.21,-7.52 161.28,17.02 -14.35,13.34 -77.27,80.39 -15.94,180.75 2.53,4.13 7.96,5.44 12.09,2.92 0.97,-0.56 1.75,-1.3 2.39,-2.12 2.17,-2.8 2.53,-6.78 0.55,-10 -60.4,-98.84 11.57,-157.74 14.66,-160.22 3.66,-2.95 4.4,-8.22 1.68,-12.02 15.63,-10.61 33.15,-18.96 52.43,-24.16 93,-24.91 188.63,30.26 213.59,123.26 24.75,92.29 -29.38,187.15 -121.09,212.97zm-415.12 144.86c1.23,-0.23 2.45,-0.48 3.67,-0.74 -1.22,0.26 -2.44,0.51 -3.67,0.74zm4.58 -0.93c1.53,-0.33 3.06,-0.68 4.59,-1.05 -1.53,0.37 -3.06,0.72 -4.59,1.05zm4.89 -1.12c1.68,-0.41 3.36,-0.83 5.04,-1.29 -1.68,0.46 -3.36,0.88 -5.04,1.29z"/>
   </g>
   <g>
    <path class="fil6 str8" d="M7372.39 11485.01l0 0c-0.07,-0.72 -0.17,-1.37 -0.26,-2.09 1.96,1.41 3.9,2.8 5.86,4.21 208.82,150.21 386.75,266.14 234.19,514.04 12.62,-72.61 -23.62,-181.85 -75.68,-283.55 62.26,142.27 68.49,268.82 68.37,268.6 -79.19,-152.57 -183.14,-82.44 -232.48,-501.21l0 0zm-155.37 410.38c43.57,2.58 101.81,14.38 148.75,53.92 15.3,12.89 30.6,27.53 45.32,43.93 30.37,30.23 58.76,69.02 84.09,117.39 5.05,9.64 10.41,18.98 16.03,28.02 45.94,-78.78 130.82,-163.09 222.34,-143.63 2.67,6.36 3.2,10.14 2.07,21.33 -1.12,11.21 -4.15,13.77 -13.24,21.49 -76.41,-16.56 -146.25,39.96 -197.42,120.53l-0.54 0.26c1.95,2.78 3.93,5.54 5.93,8.26 17.44,13.01 36.1,24.91 56.05,35.53 340.2,180.74 209.75,502.8 -60.37,598.67 -95.48,30.69 -458.77,174.02 -565.83,16.58 -6.4,-9.2 -30.12,-38.46 -37.53,-46.79 -8.3,-7.47 -64.91,-55.63 -74.01,-62.03 -15.91,-10.96 -28.57,-24.31 -38.44,-39.54 2.79,-18.79 -35.67,-84.55 -39.6,-116.92 -8.35,-68.67 20.22,-152.4 40.47,-223.64 22.09,-77.68 56.43,-146.28 67.3,-177.82 56.74,-164.8 207.04,-263.38 338.63,-255.54zm160.22 -405.93c-0.54,-0.51 -1.07,-0.98 -1.61,-1.48 0.54,0.5 1.07,0.99 1.61,1.48z"/>
    <path id="1" class="fil7" d="M7372.39 11485.01l0 0c-0.07,-0.72 -0.17,-1.37 -0.26,-2.09 1.96,1.41 3.9,2.8 5.86,4.21 208.82,150.21 386.75,266.14 234.19,514.04 12.62,-72.61 -23.62,-181.85 -75.68,-283.55 62.26,142.27 68.49,268.82 68.37,268.6 -79.19,-152.57 -183.14,-82.44 -232.48,-501.21l0 0zm-155.37 410.38c43.57,2.58 101.81,14.38 148.75,53.92 15.3,12.89 30.6,27.53 45.32,43.93 30.37,30.23 58.76,69.02 84.09,117.39 5.05,9.64 10.41,18.98 16.03,28.02 45.94,-78.78 130.82,-163.09 222.34,-143.63 2.67,6.36 3.2,10.14 2.07,21.33 -1.12,11.21 -4.15,13.77 -13.24,21.49 -76.41,-16.56 -146.25,39.96 -197.42,120.53l-0.54 0.26c1.95,2.78 3.93,5.54 5.93,8.26 17.44,13.01 36.1,24.91 56.05,35.53 340.2,180.74 209.75,502.8 -60.37,598.67 -95.48,30.69 -458.77,174.02 -565.83,16.58 -6.4,-9.2 -30.12,-38.46 -37.53,-46.79 -8.3,-7.47 -64.91,-55.63 -74.01,-62.03 -15.91,-10.96 -28.57,-24.31 -38.44,-39.54 2.79,-18.79 -35.67,-84.55 -39.6,-116.92 -8.35,-68.67 20.22,-152.4 40.47,-223.64 22.09,-77.68 56.43,-146.28 67.3,-177.82 56.74,-164.8 207.04,-263.38 338.63,-255.54zm160.22 -405.93c-0.54,-0.51 -1.07,-0.98 -1.61,-1.48 0.54,0.5 1.07,0.99 1.61,1.48z"/>
   </g>
   <path class="fil5" d="M8000.57 13155.53c13.49,62.14 -78.3,103.91 -139.21,103.36 -125.67,16.51 -922.52,-250.28 -1252.58,-448.32 -49.75,-29.85 -773.66,-334.62 -984.81,-572.22 -71.31,-80.24 -81.91,-162.54 8.99,-212.27 190.11,134.17 608.48,366.68 1105.1,608.82 590.95,288.13 1102.99,497.4 1262.51,520.63z"/>
   <path class="fil5" d="M8000.57 13155.53c46.31,-77.96 -466.79,-308.88 -466.79,-308.88l-56.15 18.64c0,0 455.61,243.72 448.11,269.12 -7.49,25.4 74.83,21.12 74.83,21.12z"/>
   <path class="fil5" d="M6347.27 12282.6c-304.25,-169.78 -651.82,-393.23 -732.72,-266.04 -80.9,127.18 81.55,-7.13 241.06,65.36 159.51,72.49 320.7,165.21 522.22,276.21l-30.56 -75.53z"/>
   <path class="fil5" d="M6751.55 12510.73c0,0 -5.63,-3.77 -38.7,-24.12l-63.22 21.04c80.17,44.84 99.16,55.67 99.16,55.67l2.76 -52.59z"/>
   <path class="fil1" d="M8400 12991.27c0,0 4.42,240.17 -234.27,521.59 -238.69,281.42 -54.51,465.6 -54.51,465.6l110.49 165.02 0 60.41 0 204.81c0,210.69 122.31,257.84 122.31,257.84l436.13 -44.2c0,0 0,25.05 -57.45,23.58 -57.46,-1.47 -388.99,110.51 -388.99,110.51 0,0 -138.75,17.68 -167.97,0 -25.5,-15.44 -2,-454.55 4.39,-566.02 -4.76,-12.06 -9.69,-22.14 -14.71,-29.25 -35.36,-50.09 -159.13,-198.91 -165.02,-330.04 -5.9,-131.14 42.73,-210.7 42.73,-210.7 0,0 207.75,-259.32 223.95,-290.26 16.21,-30.95 142.92,-338.89 142.92,-338.89z"/>
   <path class="fil1" d="M9554.77 15363.53c0,0 -288.48,327.09 -648.15,321.2 -114.26,-1.87 376.52,-88.14 586.82,-375.53 9.27,8.53 61.33,54.33 61.33,54.33z"/>
   <path class="fil1" d="M8870.62 12444.7c0,0 233.11,-123.14 274.37,-179.13 41.26,-55.98 -80.66,173.62 -261.34,228.26 -180.68,54.64 -13.03,-49.13 -13.03,-49.13z"/>
   <path class="fil1" d="M8431.09 14724.39c0,0 31.13,251.19 71.84,257.86 40.71,6.68 30.53,5.01 30.53,5.01 -73.14,242.53 75.71,252.68 67.2,359.66 -2.81,35.37 -19.06,50.25 -19.06,50.25 0,0 -2.96,2.13 -5.18,-11.68 -2.22,-13.8 8.93,-33.99 -2.16,-59.7 -11.08,-25.71 -29.27,-33.17 -29.27,-33.17 -27.77,103.71 10.7,119.14 5.36,151.68 -2.98,18.18 6.2,174.22 6.2,174.22 0,0 148.34,-269.82 199.16,-288.36 50.82,-18.54 -120.59,198.22 -138.5,298.3 -17.9,100.09 -52.44,228.8 -52.44,228.8 0,0 -23.34,-121.78 -31.49,-181.34 -8.14,-59.57 -28.02,-156.89 -33.45,-196.6 -10.9,-79.61 -6.5,-150.73 -14.04,-217.91 -11.5,-102.52 -40.15,-198.94 -60.32,-334.79l-28.67 -193.15 34.29 -9.08z"/>
   <path class="fil1" d="M9102.54 13935.14c0,0 -108.11,168.16 -259.1,130.41 -151,-37.75 -200.76,-130.41 -200.76,-130.41 0,0 272.82,181.88 459.86,0z"/>
   <path class="fil1" d="M9621.42 13689.92l-64.19 -205.81c-63.7,22.28 6.33,322.43 14.99,393.67l49.2 -187.86z"/>
   <path class="fil8" d="M13573.79 18356.41l749.61 -2144.56 899.12 -2.58 1619.79 4311.6 -0.01 221.84 -1652.51 4.74 -224.49 -688.98 -358.16 1.03 -211.43 690.23 -1899.3 5.46 -59.12 -337.62 -124.1 385.7 -872.86 2.51 -131.7 -402.84 -62.27 355.84 -4673.37 13.41 -0.7 -305.6c-303.85,264.25 -674.79,364.62 -1056.07,365.71 -369.17,1.06 -719.83,-107.32 -1030.98,-330.12l-341.79 -244.73 0 -221.83 537.32 -1250.83c-3.66,-3.68 -7.28,-7.38 -10.86,-11.09 -132.44,-137.28 -234.92,-301.49 -305.19,-487.65 -71.46,-189.32 -104.64,-390.7 -105.11,-595.88 -0.95,-415.21 142.01,-781.9 417.11,-1060.4 275.27,-278.68 618.37,-401.51 986.77,-402.56 304.38,-0.88 627.58,45.18 899.57,206.82l-0.35 -152.33 1512.31 -4.35 6.56 2863.13 847.07 -2.43 -6.56 -2863.13 1512.32 -4.34 1.18 518.11 91.97 -518.38 1037.77 -2.98 297.32 1029.9 284.97 -1031.57 1039.49 -2.99 386.68 2093.74z"/>
   <path class="fil7" d="M4747.29 20043.01l198.32 -543.55c213.39,167.44 423.06,250.86 628.99,250.27 317.04,-0.91 475.27,-125.03 474.71,-372.34 -0.27,-115.73 -38.03,-225.8 -113.28,-331.01 -74.55,-104.42 -229.09,-222.09 -462.92,-352.21 -233.83,-129.32 -391.89,-236.67 -472.75,-320.47 -81.58,-84.58 -144.08,-184.28 -187.52,-299.88 -44.14,-116.4 -66.37,-244.75 -66.69,-385.05 -0.6,-263.17 85.23,-481.4 256.8,-654.7 171.57,-174.08 392.16,-261.12 661.79,-261.89 351,-1.01 609.47,71.96 773.99,218.93l-162.28 521.25c-190.01,-151.64 -389.74,-227.17 -599.92,-226.56 -124.55,0.35 -220.71,37.09 -289.19,111.01 -68.48,73.12 -102.22,169.13 -101.96,286.45 0.45,194.99 194.11,396.57 580.27,605.52 204.06,110.39 350.79,213.02 440.88,306.29 90.08,93.28 158.98,201.68 205.97,325.99 47.7,125.11 71.37,263.76 71.72,416.75 0.63,275.05 -95.8,502.04 -290.01,680.15 -193.49,178.91 -453,268.44 -779.24,269.37 -283.78,0.82 -539.44,-80.89 -767.68,-244.32z"/>
   <polygon class="fil7" points="7058.27,20225.83 7050.49,16825.27 7589.74,16823.72 7596.29,19686.85 8967.76,19682.91 8968.99,20220.34 "/>
   <polygon class="fil7" points="9417.65,20219.05 9409.87,16818.49 9949.12,16816.95 9956.9,20217.5 "/>
   <polygon class="fil7" points="13418.83,20207.56 12896.57,20209.06 12576.05,18378.9 11971.04,20259.28 11779.97,20259.83 11166.37,18382.95 10845.74,20214.95 10323.47,20216.45 10927.12,16814.14 11211.61,16813.32 11872.86,19103.84 12506.65,16809.6 12791.13,16808.79 "/>
   <path class="fil7" d="M15529.82 20201.5l-224.49 -688.98 -1045.94 3 -211.43 690.24 -598.7 1.72 1206.48 -3451.61 237.78 -0.68 1230.75 3444.61 -594.45 1.7zm-752.81 -2404.4l-364.41 1256.65 733.86 -2.11 -369.45 -1254.54z"/>
   <g>
    <g>
     <path class="fil9" d="M13573.79 18134.58l749.61 -2144.56 899.12 -2.59 1619.78 4533.44 -1652.51 4.75 -224.49 -688.99 -358.16 1.03 -211.43 690.24 -1899.3 5.45 -59.12 -337.62 -124.1 385.71 -872.86 2.5 -131.7 -402.83 -62.27 355.83 -4673.37 13.42 -0.7 -305.6c-303.85,264.25 -674.79,364.61 -1056.07,365.71 -369.17,1.06 -719.83,-107.33 -1030.98,-330.12l-341.79 -244.73 537.32 -1472.67c-3.66,-3.68 -7.28,-7.38 -10.86,-11.09 -132.44,-137.27 -234.92,-301.48 -305.19,-487.65 -71.46,-189.32 -104.64,-390.69 -105.11,-595.88 -0.95,-415.21 142.01,-781.9 417.11,-1060.4 275.27,-278.68 618.37,-401.5 986.77,-402.56 304.38,-0.87 627.58,45.19 899.57,206.83l-0.35 -152.34 1512.31 -4.34 6.56 2863.13 847.07 -2.44 -6.56 -2863.12 1512.32 -4.35 1.18 518.11 91.97 -518.38 1037.77 -2.97 297.32 1029.9 284.97 -1031.58 1039.49 -2.98 386.68 2093.74z"/>
     <path class="fil3" d="M4747.29 19821.18l198.32 -543.55c213.39,167.43 423.06,250.85 628.99,250.26 317.04,-0.91 475.27,-125.02 474.71,-372.33 -0.27,-115.73 -38.03,-225.81 -113.28,-331.02 -74.55,-104.42 -229.09,-222.08 -462.92,-352.2 -233.83,-129.33 -391.89,-236.68 -472.75,-320.47 -81.58,-84.58 -144.08,-184.28 -187.52,-299.89 -44.14,-116.39 -66.37,-244.74 -66.69,-385.05 -0.6,-263.16 85.23,-481.39 256.8,-654.69 171.57,-174.09 392.16,-261.12 661.79,-261.9 351,-1.01 609.47,71.97 773.99,218.94l-162.28 521.25c-190.01,-151.65 -389.74,-227.17 -599.92,-226.57 -124.55,0.36 -220.71,37.1 -289.19,111.01 -68.48,73.13 -102.22,169.14 -101.96,286.45 0.45,195 194.11,396.58 580.27,605.53 204.06,110.38 350.79,213.01 440.88,306.29 90.08,93.28 158.98,201.67 205.97,325.99 47.7,125.11 71.37,263.76 71.72,416.74 0.63,275.06 -95.8,502.04 -290.01,680.16 -193.49,178.9 -453,268.43 -779.24,269.37 -283.78,0.81 -539.44,-80.89 -767.68,-244.32z"/>
    </g>
    <polygon class="fil3" points="7058.27,20003.99 7050.49,16603.43 7589.74,16601.89 7596.29,19465.01 8967.76,19461.08 8968.99,19998.51 "/>
    <polygon class="fil3" points="9417.65,19997.22 9409.87,16596.66 9949.12,16595.11 9956.9,19995.67 "/>
    <polygon class="fil3" points="13418.83,19985.73 12896.57,19987.23 12576.05,18157.07 11971.04,20037.45 11779.97,20038 11166.37,18161.12 10845.74,19993.12 10323.47,19994.62 10927.12,16592.3 11211.61,16591.49 11872.86,18882.01 12506.65,16587.77 12791.13,16586.95 "/>
    <path class="fil3" d="M15529.82 19979.67l-224.49 -688.99 -1045.94 3.01 -211.43 690.23 -598.7 1.72 1206.48 -3451.6 237.78 -0.69 1230.75 3444.61 -594.45 1.71zm-752.81 -2404.41l-364.41 1256.65 733.86 -2.11 -369.45 -1254.54z"/>
   </g>
   <path class="fil1" d="M12849.33 13086.78l-161.59 241.05 209.16 -259.18c0,0 -72.51,65.48 -72.2,69.25 0.31,3.76 24.63,-51.12 24.63,-51.12z"/>
   <g>
    <g>
     <path class="fil9" d="M13573.79 18134.58l749.61 -2144.56 899.12 -2.59 1619.78 4533.44 -1652.51 4.75 -224.49 -688.99 -358.16 1.03 -211.43 690.24 -1899.3 5.45 -59.12 -337.62 -124.1 385.71 -872.86 2.5 -131.7 -402.83 -62.27 355.83 -4673.37 13.42 -0.7 -305.6c-303.85,264.25 -674.79,364.61 -1056.07,365.71 -369.17,1.06 -719.83,-107.33 -1030.98,-330.12l-341.79 -244.73 537.32 -1472.67c-3.66,-3.68 -7.28,-7.38 -10.86,-11.09 -132.44,-137.27 -234.92,-301.48 -305.19,-487.65 -71.46,-189.32 -104.64,-390.69 -105.11,-595.88 -0.95,-415.21 142.01,-781.9 417.11,-1060.4 275.27,-278.68 618.37,-401.5 986.77,-402.56 304.38,-0.87 627.58,45.19 899.57,206.83l-0.35 -152.34 1512.31 -4.34 6.56 2863.13 847.07 -2.44 -6.56 -2863.12 1512.32 -4.35 1.18 518.11 91.97 -518.38 1037.77 -2.97 297.32 1029.9 284.97 -1031.58 1039.49 -2.98 386.68 2093.74z"/>
     <path class="fil3" d="M4747.29 19821.18l198.32 -543.55c213.39,167.43 423.06,250.85 628.99,250.26 317.04,-0.91 475.27,-125.02 474.71,-372.33 -0.27,-115.73 -38.03,-225.81 -113.28,-331.02 -74.55,-104.42 -229.09,-222.08 -462.92,-352.2 -233.83,-129.33 -391.89,-236.68 -472.75,-320.47 -81.58,-84.58 -144.08,-184.28 -187.52,-299.89 -44.14,-116.39 -66.37,-244.74 -66.69,-385.05 -0.6,-263.16 85.23,-481.39 256.8,-654.69 171.57,-174.09 392.16,-261.12 661.79,-261.9 351,-1.01 609.47,71.97 773.99,218.94l-162.28 521.25c-190.01,-151.65 -389.74,-227.17 -599.92,-226.57 -124.55,0.36 -220.71,37.1 -289.19,111.01 -68.48,73.13 -102.22,169.14 -101.96,286.45 0.45,195 194.11,396.58 580.27,605.53 204.06,110.38 350.79,213.01 440.88,306.29 90.08,93.28 158.98,201.67 205.97,325.99 47.7,125.11 71.37,263.76 71.72,416.74 0.63,275.06 -95.8,502.04 -290.01,680.16 -193.49,178.9 -453,268.43 -779.24,269.37 -283.78,0.81 -539.44,-80.89 -767.68,-244.32z"/>
    </g>
    <polygon class="fil3" points="7058.27,20003.99 7050.49,16603.43 7589.74,16601.89 7596.29,19465.01 8967.76,19461.08 8968.99,19998.51 "/>
    <polygon class="fil3" points="9417.65,19997.22 9409.87,16596.66 9949.12,16595.11 9956.9,19995.67 "/>
    <polygon class="fil3" points="13418.83,19985.73 12896.57,19987.23 12576.05,18157.07 11971.04,20037.45 11779.97,20038 11166.37,18161.12 10845.74,19993.12 10323.47,19994.62 10927.12,16592.3 11211.61,16591.49 11872.86,18882.01 12506.65,16587.77 12791.13,16586.95 "/>
    <path class="fil3" d="M15529.82 19979.67l-224.49 -688.99 -1045.94 3.01 -211.43 690.23 -598.7 1.72 1206.48 -3451.6 237.78 -0.69 1230.75 3444.61 -594.45 1.71zm-752.81 -2404.41l-364.41 1256.65 733.86 -2.11 -369.45 -1254.54z"/>
   </g>
   <path class="fil1" d="M11321.42 14054c0,0 192.2,107.31 362.54,43.51 170.33,-63.8 -14.63,81.01 -107.11,84.52 -92.49,3.51 -183.18,-35.4 -255.43,-128.03z"/>
   <path class="fil1" d="M11321.42 14424.98c0,0 192.2,107.31 362.54,43.51 170.33,-63.8 -14.63,81.01 -107.11,84.52 -92.49,3.51 -183.18,-35.4 -255.43,-128.03z"/>
   <path class="fil1" d="M11727 14101.65c0,0 187.93,66.06 329.98,-17.09 142.05,-83.15 -0.55,74.49 -82.48,91.88 -81.93,17.39 -168.8,-3.33 -247.5,-74.79z"/>
   <path class="fil1" d="M11766.64 14456.84c0,0 137.22,48.24 240.94,-12.48 103.72,-60.71 -0.4,54.39 -60.22,67.09 -59.82,12.7 -123.25,-2.43 -180.72,-54.61z"/>
  </g>
 </g>
</svg>
