<svg width="254" height="254" viewBox="0 0 254 254" fill="none" xmlns="http://www.w3.org/2000/svg">
<circle cx="127" cy="127" r="100" fill="#EFF7F9"/>
<circle cx="127" cy="127" r="110" stroke="#EFF7F9" stroke-width="3"/>
<circle cx="127" cy="127" r="125" stroke="#EFF7F9" stroke-width="3"/>
<path d="M150 129.392C150 140.221 141.046 149 130 149C118.954 149 110 140.221 110 129.392" stroke="#FA5C01" stroke-width="4" stroke-linecap="round"/>
<path d="M131.1 134.098C131.1 134.927 130.428 135.598 129.6 135.598C128.771 135.598 128.1 134.927 128.1 134.098H131.1ZM128.539 107.939C129.125 107.354 130.074 107.354 130.66 107.939L140.206 117.485C140.792 118.071 140.792 119.021 140.206 119.607C139.62 120.192 138.671 120.192 138.085 119.607L129.6 111.121L121.114 119.607C120.529 120.192 119.579 120.192 118.993 119.607C118.407 119.021 118.407 118.071 118.993 117.485L128.539 107.939ZM128.1 134.098V109H131.1V134.098H128.1Z" fill="#FA5C01"/>
</svg>
