<svg width="370" height="480" viewBox="0 0 390 525" fill="none" xmlns="http://www.w3.org/2000/svg">
<path opacity="0.25" d="M364.277 186.055C372.277 304.455 262.277 330.389 206.277 328.555C175.777 328.555 91.9127 323.184 69.0002 281.684C10.682 176.055 123.444 80.3886 193.777 67.5555C247.277 57.7222 356.277 67.6555 364.277 186.055Z" fill="url(#paint0_linear_307_18984)"/>
<circle cx="27.0149" cy="246.699" r="13.8926" transform="rotate(-15 27.0149 246.699)" stroke="#FA5C01" stroke-width="2.31544" stroke-linecap="round" stroke-linejoin="bevel" stroke-dasharray="6.95 6.95"/>
<circle opacity="0.5" cx="154.577" cy="39.2608" r="11.5772" fill="url(#paint1_linear_307_18984)"/>
<circle opacity="0.5" cx="50.52" cy="282.94" r="8.10403" fill="url(#paint2_linear_307_18984)"/>
<circle opacity="0.5" cx="326.703" cy="326.149" r="27.7852" fill="url(#paint3_linear_307_18984)"/>
<circle opacity="0.5" cx="298.064" cy="36.2617" r="9.26174" fill="url(#paint4_linear_307_18984)"/>
<circle cx="298.063" cy="36.2591" r="3.08725" fill="#FA5C01"/>
<circle opacity="0.5" cx="368.685" cy="189.918" r="15.0503" fill="url(#paint5_linear_307_18984)"/>
<circle cx="368.684" cy="189.915" r="5.01678" fill="#FA5C01"/>
<circle opacity="0.5" cx="24.9446" cy="233.628" r="17.9446" fill="url(#paint6_linear_307_18984)"/>
<circle cx="315.737" cy="315.42" r="26.7298" transform="rotate(-15 315.737 315.42)" stroke="#FA5C01" stroke-width="4.45497" stroke-linecap="round" stroke-linejoin="bevel" stroke-dasharray="13.36 13.36"/>
<g filter="url(#filter0_d_307_18984)">
<circle cx="195.5" cy="213.5" r="94" stroke="#FA5C01" stroke-width="15"/>
<path d="M237.369 186.855L184.082 240.141L157.438 213.499" stroke="#FA5C01" stroke-width="24.7" stroke-linecap="round" stroke-linejoin="round"/>
</g>
<defs>
<filter id="filter0_d_307_18984" x="-66.55" y="0.849998" width="524.1" height="524.1" filterUnits="userSpaceOnUse" color-interpolation-filters="sRGB">
<feFlood flood-opacity="0" result="BackgroundImageFix"/>
<feColorMatrix in="SourceAlpha" type="matrix" values="0 0 0 0 0 0 0 0 0 0 0 0 0 0 0 0 0 0 127 0" result="hardAlpha"/>
<feOffset dy="49.4"/>
<feGaussianBlur stdDeviation="80.275"/>
<feColorMatrix type="matrix" values="0 0 0 0 0.337255 0 0 0 0 0.372549 0 0 0 0 1 0 0 0 0.25 0"/>
<feBlend mode="normal" in2="BackgroundImageFix" result="effect1_dropShadow_307_18984"/>
<feBlend mode="normal" in="SourceGraphic" in2="effect1_dropShadow_307_18984" result="shape"/>
</filter>
<linearGradient id="paint0_linear_307_18984" x1="349.257" y1="350.641" x2="109.091" y2="5.7204" gradientUnits="userSpaceOnUse">
<stop stop-color="#FA5C01"/>
<stop offset="1" stop-color="#FA5C01" stop-opacity="0"/>
</linearGradient>
<linearGradient id="paint1_linear_307_18984" x1="165.008" y1="52.7675" x2="142.967" y2="25.9755" gradientUnits="userSpaceOnUse">
<stop stop-color="#FA5C01"/>
<stop offset="1" stop-color="#FA5C01" stop-opacity="0"/>
</linearGradient>
<linearGradient id="paint2_linear_307_18984" x1="57.8219" y1="292.395" x2="42.393" y2="273.64" gradientUnits="userSpaceOnUse">
<stop stop-color="#FA5C01"/>
<stop offset="1" stop-color="#FA5C01" stop-opacity="0"/>
</linearGradient>
<linearGradient id="paint3_linear_307_18984" x1="351.738" y1="358.565" x2="298.839" y2="294.264" gradientUnits="userSpaceOnUse">
<stop stop-color="#FA5C01"/>
<stop offset="1" stop-color="#FA5C01" stop-opacity="0"/>
</linearGradient>
<linearGradient id="paint4_linear_307_18984" x1="306.409" y1="47.0671" x2="288.775" y2="25.6336" gradientUnits="userSpaceOnUse">
<stop stop-color="#FA5C01"/>
<stop offset="1" stop-color="#FA5C01" stop-opacity="0"/>
</linearGradient>
<linearGradient id="paint5_linear_307_18984" x1="382.245" y1="207.476" x2="353.592" y2="172.647" gradientUnits="userSpaceOnUse">
<stop stop-color="#FA5C01"/>
<stop offset="1" stop-color="#FA5C01" stop-opacity="0"/>
</linearGradient>
<linearGradient id="paint6_linear_307_18984" x1="41.1131" y1="254.564" x2="6.94911" y2="213.036" gradientUnits="userSpaceOnUse">
<stop stop-color="#FA5C01"/>
<stop offset="1" stop-color="#FA5C01" stop-opacity="0"/>
</linearGradient>
</defs>
</svg>
