<svg width="30" height="20" viewBox="0 0 30 20" fill="none" xmlns="http://www.w3.org/2000/svg">
<path d="M19.4776 0.000968176C22.2692 0.000968176 25.0608 -0.00199686 27.8538 0.0024507C29.2963 0.00541574 29.9946 0.694787 29.9961 2.13283C30.0005 7.27124 30.002 12.4111 29.9961 17.5496C29.9946 18.9402 29.2889 19.6547 27.8998 19.6562C22.3166 19.6636 16.732 19.6621 11.1488 19.6562C9.74783 19.6547 8.54996 19.1373 7.56112 18.1485C5.30324 15.8965 3.04981 13.6431 0.799346 11.3867C-0.254725 10.3297 -0.268068 9.34233 0.769696 8.30011C3.05278 6.00517 5.33734 3.7132 7.63524 1.43456C8.58702 0.4902 9.75228 0.00393322 11.1014 0.0024507C13.8944 -0.00199686 16.686 0.000968176 19.4776 0.000968176ZM17.4732 9.80932C16.1182 11.1584 14.8551 12.4082 13.6009 13.6683C13.0539 14.2183 13.002 14.7268 13.4156 15.1568C13.8262 15.5837 14.357 15.5348 14.8981 15.007C15.4111 14.5059 15.9196 14.0004 16.4177 13.486C17.1812 12.6973 17.9328 11.8982 18.7482 11.0428C19.104 11.4386 19.3249 11.7055 19.568 11.9501C20.6117 13.0027 21.6614 14.0493 22.7125 15.096C23.1468 15.5274 23.639 15.6075 24.0853 15.1627C24.5286 14.7209 24.45 14.2272 24.0349 13.784C23.9 13.6401 23.7562 13.5038 23.6153 13.3644C22.4412 12.208 21.2655 11.0532 20.0143 9.82118C20.5465 9.31564 20.9987 8.90053 21.4345 8.46912C22.3122 7.60036 23.1884 6.72864 24.0512 5.84506C24.4796 5.40624 24.5152 4.90514 24.066 4.47076C23.639 4.05714 23.1706 4.13275 22.7466 4.52414C22.5835 4.67535 22.4278 4.83398 22.2707 4.99261C21.1128 6.16084 19.9565 7.33055 18.7037 8.59662C18.5258 8.35348 18.425 8.17706 18.2871 8.03771C17.1204 6.86355 15.9507 5.69236 14.7721 4.53007C14.3614 4.12534 13.8855 4.06159 13.4541 4.47076C13.0316 4.87105 13.0435 5.34397 13.4141 5.79317C13.5238 5.9266 13.6543 6.04224 13.7773 6.1638C14.9871 7.35723 16.1983 8.55214 17.4732 9.80932Z" fill="#EB5757"/>
</svg>
