<svg width="34" height="34" viewBox="0 0 34 34" fill="none" xmlns="http://www.w3.org/2000/svg">
<path d="M14.3253 12.7727H12.821L10.652 14.1662V15.6151L12.6932 14.3111H12.7443V21.5H14.3253V12.7727ZM19.5753 21.6193C21.4205 21.6193 22.7074 20.3665 22.7074 18.6321C22.7074 16.9531 21.5398 15.7429 19.9545 15.7429C19.2472 15.7429 18.6207 16.0241 18.2969 16.4077H18.2457L18.4972 14.0938H22.2514V12.7727H17.1889L16.733 17.2727L18.1605 17.5071C18.4545 17.1832 19.0085 16.9659 19.5327 16.9702C20.4915 16.9744 21.1818 17.6818 21.1776 18.6705C21.1818 19.6463 20.5085 20.3409 19.5753 20.3409C18.7869 20.3409 18.152 19.8423 18.0966 19.1264H16.5625C16.6051 20.5753 17.8707 21.6193 19.5753 21.6193Z" fill="white"/>
<path fill-rule="evenodd" clip-rule="evenodd" d="M20.452 5.44992V6.0047C20.452 6.76954 19.6283 7.25125 18.9617 6.87627L15.4129 4.87995C14.7333 4.49764 14.7333 3.51914 15.4129 3.13683L18.9617 1.14051C19.6283 0.765525 20.452 1.24724 20.452 2.01208V3.38625C20.626 3.42724 20.7988 3.47125 20.9704 3.51824C27.3276 5.25891 32.0007 11.0765 32.0007 17.9882C32.0007 26.2731 25.2849 32.9895 17.0003 32.9895C8.71582 32.9895 2 26.2731 2 17.9882C2 12.8635 4.5705 8.33936 8.48791 5.63484C8.9424 5.32106 9.56521 5.43514 9.87898 5.88963C10.1928 6.34412 10.0787 6.96693 9.62419 7.2807C6.22449 9.6278 4 13.5483 4 17.9882C4 25.1687 9.82051 30.9895 17.0003 30.9895C24.1802 30.9895 30.0007 25.1687 30.0007 17.9882C30.0007 12.0041 25.9573 6.96198 20.452 5.44992Z" fill="white"/>
</svg>
