<svg width="20" height="20" viewBox="0 0 20 20" fill="none" xmlns="http://www.w3.org/2000/svg">
<path fill-rule="evenodd" clip-rule="evenodd" d="M6.7999 1.1999V6.7999H1.1999L1.1999 8.3999H7.1999C7.86264 8.3999 8.3999 7.86264 8.3999 7.1999V1.1999H6.7999Z" fill="white"/>
<path fill-rule="evenodd" clip-rule="evenodd" d="M6.7999 18.8001V13.2001H1.1999L1.1999 11.6001H7.1999C7.86264 11.6001 8.3999 12.1374 8.3999 12.8001V18.8001H6.7999Z" fill="white"/>
<path fill-rule="evenodd" clip-rule="evenodd" d="M13.2001 18.8001V13.2001H18.8001L18.8001 11.6001H12.8001C12.1374 11.6001 11.6001 12.1374 11.6001 12.8001V18.8001H13.2001Z" fill="white"/>
<path fill-rule="evenodd" clip-rule="evenodd" d="M13.2001 1.1999V6.7999H18.8001L18.8001 8.3999H12.8001C12.1374 8.3999 11.6001 7.86264 11.6001 7.1999V1.1999H13.2001Z" fill="white"/>
</svg>
