<svg width="34" height="34" viewBox="0 0 34 34" fill="none" xmlns="http://www.w3.org/2000/svg">
<path d="M14.3253 12.7727H12.821L10.652 14.1662V15.6151L12.6932 14.3111H12.7443V21.5H14.3253V12.7727ZM19.5753 21.6193C21.4205 21.6193 22.7074 20.3665 22.7074 18.6321C22.7074 16.9531 21.5398 15.7429 19.9545 15.7429C19.2472 15.7429 18.6207 16.0241 18.2969 16.4077H18.2457L18.4972 14.0938H22.2514V12.7727H17.1889L16.733 17.2727L18.1605 17.5071C18.4545 17.1832 19.0085 16.9659 19.5327 16.9702C20.4915 16.9744 21.1818 17.6818 21.1776 18.6705C21.1818 19.6463 20.5085 20.3409 19.5753 20.3409C18.7869 20.3409 18.152 19.8423 18.0966 19.1264H16.5625C16.6051 20.5753 17.8707 21.6193 19.5753 21.6193Z" fill="white"/>
<path fill-rule="evenodd" clip-rule="evenodd" d="M13.548 5.44992V6.0047C13.548 6.76954 14.3717 7.25125 15.0383 6.87627L18.5871 4.87995C19.2667 4.49764 19.2667 3.51914 18.5871 3.13683L15.0383 1.14051C14.3717 0.765525 13.548 1.24724 13.548 2.01208V3.38625C13.374 3.42724 13.2012 3.47125 13.0296 3.51824C6.67245 5.25891 1.99931 11.0765 1.99931 17.9882C1.99931 26.2731 8.71513 32.9895 16.9997 32.9895C25.2842 32.9895 32 26.2731 32 17.9882C32 12.8635 29.4295 8.33936 25.5121 5.63484C25.0576 5.32106 24.4348 5.43514 24.121 5.88963C23.8072 6.34412 23.9213 6.96693 24.3758 7.2807C27.7755 9.6278 30 13.5483 30 17.9882C30 25.1687 24.1795 30.9895 16.9997 30.9895C9.81982 30.9895 3.99931 25.1687 3.99931 17.9882C3.99931 12.0041 8.04273 6.96198 13.548 5.44992Z" fill="white"/>
</svg>
