<?xml version="1.0" encoding="UTF-8"?>
<svg xmlns="http://www.w3.org/2000/svg" width="80pt" height="80pt" viewBox="0 0 80 80" version="1.1">
<g id="surface1">
<path style=" stroke:none;fill-rule:evenodd;fill:rgb(100%,100%,100%);fill-opacity:1;" d="M 40 75.199219 C 59.441406 75.199219 75.199219 59.441406 75.199219 40 C 75.199219 20.558594 59.441406 4.800781 40 4.800781 C 20.558594 4.800781 4.800781 20.558594 4.800781 40 C 4.800781 59.441406 20.558594 75.199219 40 75.199219 Z M 35.183594 24 L 28.816406 24 C 27.765625 24 26.910156 24.898438 26.910156 26 L 26.910156 54 C 26.910156 55.101562 27.765625 56 28.816406 56 L 35.183594 56 C 36.234375 56 37.089844 55.101562 37.089844 54 L 37.089844 26 C 37.089844 24.898438 36.234375 24 35.183594 24 Z M 51.183594 24 L 44.816406 24 C 43.765625 24 42.910156 24.898438 42.910156 26 L 42.910156 54 C 42.910156 55.101562 43.765625 56 44.816406 56 L 51.183594 56 C 52.234375 56 53.089844 55.101562 53.089844 54 L 53.089844 26 C 53.089844 24.898438 52.234375 24 51.183594 24 Z M 51.183594 24 "/>
</g>
</svg>
