<svg width="20" height="20" viewBox="0 0 20 20" fill="none" xmlns="http://www.w3.org/2000/svg">
<path fill-rule="evenodd" clip-rule="evenodd" d="M2.79995 2.79995V17.2H17.2V2.79995H2.79995ZM2.39995 1.19995C1.73721 1.19995 1.19995 1.73721 1.19995 2.39995V17.6C1.19995 18.2627 1.73721 18.8 2.39995 18.8H17.6C18.2627 18.8 18.8 18.2627 18.8 17.5999V2.39995C18.8 1.73721 18.2627 1.19995 17.5999 1.19995H2.39995ZM11.6 1.19995H8.39995V2.79995H11.6V1.19995ZM11.6 17.2H8.39995V18.8H11.6V17.2ZM1.19995 11.6L1.19995 8.39995L2.79995 8.39995L2.79995 11.6H1.19995ZM17.2 8.39995V11.6H18.8V8.39995L17.2 8.39995Z" fill="white"/>
</svg>
